<svg width="32" height="32" viewBox="0 0 32 32" fill="none" xmlns="http://www.w3.org/2000/svg">
<path d="M16.3887 1.9375L29.7875 15.3375C29.8745 15.4245 29.9436 15.5278 29.9907 15.6414C30.0379 15.7551 30.0621 15.877 30.0621 16C30.0621 16.123 30.0379 16.2449 29.9907 16.3586C29.9436 16.4723 29.8745 16.5755 29.7875 16.6625L16.3887 30.0625" stroke="#F5F5F5" stroke-width="2" stroke-linecap="round" stroke-linejoin="round"/>
<path d="M2.32623 1.9375L15.725 15.3375C15.812 15.4245 15.8811 15.5278 15.9283 15.6414C15.9754 15.7551 15.9996 15.877 15.9996 16C15.9996 16.123 15.9754 16.2449 15.9283 16.3586C15.8811 16.4723 15.812 16.5755 15.725 16.6625L2.32623 30.0625" stroke="#F5F5F5" stroke-width="2" stroke-linecap="round" stroke-linejoin="round"/>
</svg>
