<svg width="100" height="100" viewBox="0 0 100 100" fill="none" xmlns="http://www.w3.org/2000/svg">
<rect width="100" height="100" rx="4" fill="#202922"/>
<path d="M36.3335 84.9693L40.238 82.694L49.7007 88.0878L59.1593 82.6945L63.0605 84.9753L49.6996 92.7367L36.3335 84.9693Z" fill="#FFBE58"/>
<path d="M47.7078 79.7966L49.6917 78.6144L51.6914 79.7966V83.1928L49.6917 84.3588L47.7078 83.1928V79.7966Z" fill="#FFBE58"/>
<path d="M42.0664 66.0947V15.7255L46.0483 13.4678V68.3363L30.7498 77.2932L26.644 75.0323L42.0664 66.0947Z" fill="#FFBE58"/>
<path d="M57.5148 66.0618V15.6925L53.5328 13.4348V68.3034L68.8313 77.2603L72.9371 74.9994L57.5148 66.0618Z" fill="#FFBE58"/>
<path d="M36.4204 62.8438V22.6895L40.3546 20.4641V65.1088L24.9551 74.0618L22.4786 72.7339V70.9619L36.4204 62.8438Z" fill="#FFBE58"/>
<path d="M62.9789 62.8438V22.6895L59.0447 20.4641V65.1088L74.4442 74.0618L76.9207 72.7339V70.9619L62.9789 62.8438Z" fill="#FFBE58"/>
<path d="M30.7357 59.5799V32.6917L34.6783 30.4104V61.7862L22.3987 69.1513V64.2285L25.1343 62.616V42.4407L29.1179 40.1125V60.5031L30.7357 59.5799Z" fill="#FFBE58"/>
<path d="M68.5837 59.5799V32.6917L64.6411 30.4104V61.7862L76.9207 69.1513V64.2285L74.1851 62.616V42.4407L70.2015 40.1125V60.5031L68.5837 59.5799Z" fill="#FFBE58"/>
<path d="M47.7079 9.08403L49.7018 8L51.6914 9.08403V69.4091L66.9606 78.2082L76.9207 72.734V41.9952L70.2814 38.2097V33.7126L80.4081 39.5376V74.9767L66.9606 82.695L49.7025 72.734L32.4355 82.6944L19 74.9784V39.5376L29.0268 33.7126V38.2097L22.4786 41.9952V72.734L32.4408 78.2082L47.7079 69.4091V9.08403Z" fill="#FFBE58"/>
</svg>
