<svg width="231" height="64" viewBox="0 0 231 64" fill="none" xmlns="http://www.w3.org/2000/svg">
<path d="M60.6172 35.5078V27.625H62.9531V35.5078C62.9531 36.2682 62.7865 36.9219 62.4531 37.4688C62.1198 38.0104 61.6641 38.4271 61.0859 38.7188C60.513 39.0104 59.8672 39.1562 59.1484 39.1562C58.4036 39.1562 57.7448 39.0312 57.1719 38.7812C56.599 38.5312 56.1484 38.1484 55.8203 37.6328C55.4922 37.112 55.3281 36.4531 55.3281 35.6562H57.6797C57.6797 36.0729 57.737 36.4036 57.8516 36.6484C57.9714 36.8932 58.1406 37.0677 58.3594 37.1719C58.5781 37.276 58.8411 37.3281 59.1484 37.3281C59.4453 37.3281 59.7031 37.2578 59.9219 37.1172C60.1406 36.9766 60.3099 36.7708 60.4297 36.5C60.5547 36.2292 60.6172 35.8984 60.6172 35.5078ZM66.6016 32.9141L68.7891 31.5C69.112 31.2865 69.3281 31.0807 69.4375 30.8828C69.5469 30.6849 69.6016 30.4635 69.6016 30.2188C69.6016 29.974 69.5104 29.7474 69.3281 29.5391C69.1458 29.3255 68.8906 29.2188 68.5625 29.2188C68.3281 29.2188 68.1302 29.2734 67.9688 29.3828C67.8073 29.487 67.6849 29.6276 67.6016 29.8047C67.5234 29.9818 67.4844 30.1797 67.4844 30.3984C67.4844 30.6328 67.5469 30.8724 67.6719 31.1172C67.7969 31.3568 67.9661 31.612 68.1797 31.8828C68.3932 32.1484 68.6302 32.4375 68.8906 32.75L74.2578 39H71.7031L67.3281 33.9375C66.9583 33.4792 66.6354 33.0599 66.3594 32.6797C66.0833 32.2943 65.8672 31.9193 65.7109 31.5547C65.5547 31.1901 65.4766 30.8151 65.4766 30.4297C65.4766 29.8359 65.6042 29.3177 65.8594 28.875C66.1146 28.4271 66.474 28.0807 66.9375 27.8359C67.401 27.5859 67.9453 27.4609 68.5703 27.4609C69.1589 27.4609 69.6693 27.5833 70.1016 27.8281C70.5339 28.0677 70.8672 28.3854 71.1016 28.7812C71.3411 29.1771 71.4609 29.612 71.4609 30.0859C71.4609 30.4401 71.3958 30.7682 71.2656 31.0703C71.1354 31.3672 70.9557 31.6432 70.7266 31.8984C70.4974 32.1484 70.2344 32.3802 69.9375 32.5938L67.4453 34.3672C67.2526 34.5443 67.1068 34.7188 67.0078 34.8906C66.9089 35.0625 66.8411 35.2266 66.8047 35.3828C66.7682 35.5339 66.75 35.6797 66.75 35.8203C66.75 36.1224 66.8151 36.3932 66.9453 36.6328C67.0755 36.8724 67.2578 37.0599 67.4922 37.1953C67.7266 37.3307 68 37.3984 68.3125 37.3984C68.7396 37.3984 69.1536 37.3047 69.5547 37.1172C69.9557 36.9297 70.3151 36.6615 70.6328 36.3125C70.9505 35.9583 71.2031 35.5391 71.3906 35.0547C71.5781 34.5703 71.6719 34.0365 71.6719 33.4531H73.5781C73.5781 34.0365 73.5208 34.5911 73.4062 35.1172C73.2917 35.638 73.1068 36.1224 72.8516 36.5703C72.5964 37.013 72.2578 37.4062 71.8359 37.75C71.8047 37.776 71.7604 37.8151 71.7031 37.8672C71.651 37.9141 71.6068 37.9505 71.5703 37.9766C71.0703 38.3776 70.5495 38.6771 70.0078 38.875C69.4661 39.0677 68.862 39.1641 68.1953 39.1641C67.4349 39.1641 66.776 39.026 66.2188 38.75C65.6667 38.474 65.2396 38.0938 64.9375 37.6094C64.6406 37.125 64.4922 36.5703 64.4922 35.9453C64.4922 35.487 64.5807 35.0885 64.7578 34.75C64.9401 34.4062 65.1901 34.0885 65.5078 33.7969C65.8255 33.5052 66.1901 33.2109 66.6016 32.9141ZM80.1094 29.5703L77.0156 39H74.5234L78.75 27.625H80.3359L80.1094 29.5703ZM82.6797 39L79.5781 29.5703L79.3281 27.625H80.9297L85.1797 39H82.6797ZM82.5391 34.7656V36.6016H76.5312V34.7656H82.5391ZM91.3594 31.9453V39H90.4297V30.5469H91.3359L91.3594 31.9453ZM94.3516 30.4844L94.3281 31.3438C94.224 31.3281 94.1224 31.3151 94.0234 31.3047C93.9245 31.2943 93.8177 31.2891 93.7031 31.2891C93.2969 31.2891 92.9401 31.3646 92.6328 31.5156C92.3307 31.6615 92.0755 31.8672 91.8672 32.1328C91.6589 32.3932 91.5 32.7005 91.3906 33.0547C91.2812 33.4036 91.2188 33.7786 91.2031 34.1797L90.8594 34.3125C90.8594 33.7604 90.9167 33.2474 91.0312 32.7734C91.1458 32.2995 91.3203 31.8854 91.5547 31.5312C91.7943 31.1719 92.0938 30.8932 92.4531 30.6953C92.8177 30.4922 93.2448 30.3906 93.7344 30.3906C93.8542 30.3906 93.9714 30.401 94.0859 30.4219C94.2057 30.4375 94.2943 30.4583 94.3516 30.4844ZM98.9297 39.1562C98.3776 39.1562 97.8698 39.0547 97.4062 38.8516C96.9479 38.6484 96.5469 38.362 96.2031 37.9922C95.8646 37.6224 95.6016 37.1849 95.4141 36.6797C95.2318 36.1693 95.1406 35.612 95.1406 35.0078V34.6719C95.1406 34.0208 95.237 33.4323 95.4297 32.9062C95.6224 32.3802 95.888 31.9297 96.2266 31.5547C96.5651 31.1797 96.9505 30.8932 97.3828 30.6953C97.8203 30.4922 98.2786 30.3906 98.7578 30.3906C99.2943 30.3906 99.7708 30.487 100.188 30.6797C100.604 30.8672 100.953 31.1354 101.234 31.4844C101.521 31.8281 101.737 32.237 101.883 32.7109C102.029 33.1797 102.102 33.6979 102.102 34.2656V34.8359H95.7031V34.0391H101.172V33.9297C101.161 33.4557 101.065 33.013 100.883 32.6016C100.706 32.1849 100.44 31.8464 100.086 31.5859C99.7318 31.3255 99.2891 31.1953 98.7578 31.1953C98.362 31.1953 97.9974 31.2786 97.6641 31.4453C97.3359 31.612 97.0521 31.8516 96.8125 32.1641C96.5781 32.4714 96.3958 32.8385 96.2656 33.2656C96.1406 33.6875 96.0781 34.1562 96.0781 34.6719V35.0078C96.0781 35.4766 96.1458 35.9141 96.2812 36.3203C96.4219 36.7214 96.6198 37.0755 96.875 37.3828C97.1354 37.6901 97.4427 37.9297 97.7969 38.1016C98.151 38.2734 98.5417 38.3594 98.9688 38.3594C99.4688 38.3594 99.9115 38.2682 100.297 38.0859C100.682 37.8984 101.029 37.6042 101.336 37.2031L101.922 37.6562C101.74 37.9271 101.51 38.1771 101.234 38.4062C100.964 38.6354 100.638 38.8177 100.258 38.9531C99.8776 39.0885 99.4349 39.1562 98.9297 39.1562ZM109.008 36.8438C109.008 36.6146 108.951 36.388 108.836 36.1641C108.721 35.9401 108.5 35.7344 108.172 35.5469C107.849 35.3594 107.372 35.2005 106.742 35.0703C106.273 34.9661 105.854 34.849 105.484 34.7188C105.12 34.5885 104.812 34.4323 104.562 34.25C104.312 34.0677 104.122 33.849 103.992 33.5938C103.862 33.3385 103.797 33.0365 103.797 32.6875C103.797 32.375 103.865 32.0807 104 31.8047C104.141 31.5234 104.339 31.2786 104.594 31.0703C104.854 30.8568 105.167 30.6901 105.531 30.5703C105.901 30.4505 106.315 30.3906 106.773 30.3906C107.424 30.3906 107.982 30.5026 108.445 30.7266C108.914 30.9453 109.271 31.2448 109.516 31.625C109.766 32.0052 109.891 32.4349 109.891 32.9141H108.961C108.961 32.6224 108.875 32.3464 108.703 32.0859C108.536 31.8255 108.289 31.612 107.961 31.4453C107.638 31.2786 107.242 31.1953 106.773 31.1953C106.289 31.1953 105.896 31.2682 105.594 31.4141C105.292 31.5599 105.07 31.7448 104.93 31.9688C104.794 32.1927 104.727 32.4245 104.727 32.6641C104.727 32.8516 104.755 33.0234 104.812 33.1797C104.875 33.3307 104.984 33.4714 105.141 33.6016C105.302 33.7318 105.531 33.8542 105.828 33.9688C106.125 34.0833 106.51 34.1953 106.984 34.3047C107.667 34.4557 108.224 34.6406 108.656 34.8594C109.094 35.0729 109.417 35.3385 109.625 35.6562C109.833 35.9688 109.938 36.349 109.938 36.7969C109.938 37.1458 109.865 37.4661 109.719 37.7578C109.573 38.0443 109.362 38.2917 109.086 38.5C108.815 38.7083 108.487 38.8698 108.102 38.9844C107.721 39.099 107.294 39.1562 106.82 39.1562C106.107 39.1562 105.503 39.0391 105.008 38.8047C104.518 38.5651 104.146 38.2526 103.891 37.8672C103.641 37.4766 103.516 37.0625 103.516 36.625H104.445C104.477 37.0625 104.615 37.4089 104.859 37.6641C105.104 37.9141 105.404 38.0911 105.758 38.1953C106.117 38.2995 106.471 38.3516 106.82 38.3516C107.299 38.3516 107.701 38.2812 108.023 38.1406C108.346 38 108.591 37.8151 108.758 37.5859C108.924 37.3568 109.008 37.1094 109.008 36.8438ZM113.094 30.5469V39H112.164V30.5469H113.094ZM112 28.1016C112 27.9245 112.055 27.776 112.164 27.6562C112.279 27.5312 112.435 27.4688 112.633 27.4688C112.831 27.4688 112.987 27.5312 113.102 27.6562C113.221 27.776 113.281 27.9245 113.281 28.1016C113.281 28.2734 113.221 28.4219 113.102 28.5469C112.987 28.6667 112.831 28.7266 112.633 28.7266C112.435 28.7266 112.279 28.6667 112.164 28.5469C112.055 28.4219 112 28.2734 112 28.1016ZM121.141 37.3594V27H122.078V39H121.203L121.141 37.3594ZM115.273 34.8594V34.6953C115.273 34.0391 115.349 33.4479 115.5 32.9219C115.651 32.3906 115.867 31.9375 116.148 31.5625C116.435 31.1823 116.779 30.8932 117.18 30.6953C117.581 30.4922 118.034 30.3906 118.539 30.3906C119.034 30.3906 119.471 30.4714 119.852 30.6328C120.232 30.7943 120.557 31.026 120.828 31.3281C121.104 31.6302 121.326 31.9896 121.492 32.4062C121.664 32.8229 121.789 33.2865 121.867 33.7969V35.8828C121.805 36.362 121.69 36.8021 121.523 37.2031C121.357 37.599 121.135 37.9453 120.859 38.2422C120.583 38.5339 120.25 38.7604 119.859 38.9219C119.474 39.0781 119.029 39.1562 118.523 39.1562C118.023 39.1562 117.573 39.0521 117.172 38.8438C116.771 38.6354 116.43 38.3411 116.148 37.9609C115.867 37.5755 115.651 37.1198 115.5 36.5938C115.349 36.0677 115.273 35.4896 115.273 34.8594ZM116.211 34.6953V34.8594C116.211 35.3542 116.26 35.8125 116.359 36.2344C116.458 36.6562 116.609 37.0234 116.812 37.3359C117.016 37.6484 117.273 37.8932 117.586 38.0703C117.898 38.2474 118.268 38.3359 118.695 38.3359C119.232 38.3359 119.682 38.2344 120.047 38.0312C120.411 37.8229 120.703 37.5495 120.922 37.2109C121.141 36.8672 121.299 36.4922 121.398 36.0859V33.6562C121.336 33.3802 121.245 33.099 121.125 32.8125C121.005 32.526 120.841 32.263 120.633 32.0234C120.43 31.7786 120.169 31.5833 119.852 31.4375C119.539 31.2865 119.159 31.2109 118.711 31.2109C118.279 31.2109 117.906 31.2995 117.594 31.4766C117.281 31.6536 117.021 31.901 116.812 32.2188C116.609 32.5312 116.458 32.8984 116.359 33.3203C116.26 33.7422 116.211 34.2005 116.211 34.6953ZM127.805 39.1562C127.253 39.1562 126.745 39.0547 126.281 38.8516C125.823 38.6484 125.422 38.362 125.078 37.9922C124.74 37.6224 124.477 37.1849 124.289 36.6797C124.107 36.1693 124.016 35.612 124.016 35.0078V34.6719C124.016 34.0208 124.112 33.4323 124.305 32.9062C124.497 32.3802 124.763 31.9297 125.102 31.5547C125.44 31.1797 125.826 30.8932 126.258 30.6953C126.695 30.4922 127.154 30.3906 127.633 30.3906C128.169 30.3906 128.646 30.487 129.062 30.6797C129.479 30.8672 129.828 31.1354 130.109 31.4844C130.396 31.8281 130.612 32.237 130.758 32.7109C130.904 33.1797 130.977 33.6979 130.977 34.2656V34.8359H124.578V34.0391H130.047V33.9297C130.036 33.4557 129.94 33.013 129.758 32.6016C129.581 32.1849 129.315 31.8464 128.961 31.5859C128.607 31.3255 128.164 31.1953 127.633 31.1953C127.237 31.1953 126.872 31.2786 126.539 31.4453C126.211 31.612 125.927 31.8516 125.688 32.1641C125.453 32.4714 125.271 32.8385 125.141 33.2656C125.016 33.6875 124.953 34.1562 124.953 34.6719V35.0078C124.953 35.4766 125.021 35.9141 125.156 36.3203C125.297 36.7214 125.495 37.0755 125.75 37.3828C126.01 37.6901 126.318 37.9297 126.672 38.1016C127.026 38.2734 127.417 38.3594 127.844 38.3594C128.344 38.3594 128.786 38.2682 129.172 38.0859C129.557 37.8984 129.904 37.6042 130.211 37.2031L130.797 37.6562C130.615 37.9271 130.385 38.1771 130.109 38.4062C129.839 38.6354 129.513 38.8177 129.133 38.9531C128.753 39.0885 128.31 39.1562 127.805 39.1562ZM133.75 32.3516V39H132.82V30.5469H133.711L133.75 32.3516ZM133.539 34.25L133.125 34.0156C133.156 33.5156 133.258 33.0469 133.43 32.6094C133.602 32.1719 133.833 31.7865 134.125 31.4531C134.422 31.1198 134.768 30.8594 135.164 30.6719C135.565 30.4844 136.008 30.3906 136.492 30.3906C136.914 30.3906 137.292 30.4479 137.625 30.5625C137.958 30.6771 138.242 30.8594 138.477 31.1094C138.711 31.3594 138.888 31.6797 139.008 32.0703C139.133 32.4609 139.195 32.9375 139.195 33.5V39H138.258V33.4922C138.258 32.9089 138.177 32.4531 138.016 32.125C137.854 31.7917 137.625 31.5547 137.328 31.4141C137.031 31.2734 136.68 31.2031 136.273 31.2031C135.826 31.2031 135.432 31.3021 135.094 31.5C134.76 31.6927 134.479 31.9453 134.25 32.2578C134.026 32.5651 133.854 32.8958 133.734 33.25C133.615 33.599 133.549 33.9323 133.539 34.25ZM144.812 30.5469V31.3125H140.578V30.5469H144.812ZM142.133 28.375H143.062V36.9453C143.062 37.3359 143.115 37.6302 143.219 37.8281C143.323 38.026 143.458 38.1589 143.625 38.2266C143.792 38.2943 143.971 38.3281 144.164 38.3281C144.305 38.3281 144.44 38.3203 144.57 38.3047C144.701 38.2839 144.818 38.263 144.922 38.2422L144.961 39.0312C144.846 39.0677 144.698 39.0964 144.516 39.1172C144.333 39.1432 144.151 39.1562 143.969 39.1562C143.609 39.1562 143.292 39.0911 143.016 38.9609C142.74 38.8255 142.523 38.5964 142.367 38.2734C142.211 37.9453 142.133 37.5 142.133 36.9375V28.375ZM147.812 30.5469V39H146.883V30.5469H147.812ZM146.719 28.1016C146.719 27.9245 146.773 27.776 146.883 27.6562C146.997 27.5312 147.154 27.4688 147.352 27.4688C147.549 27.4688 147.706 27.5312 147.82 27.6562C147.94 27.776 148 27.9245 148 28.1016C148 28.2734 147.94 28.4219 147.82 28.5469C147.706 28.6667 147.549 28.7266 147.352 28.7266C147.154 28.7266 146.997 28.6667 146.883 28.5469C146.773 28.4219 146.719 28.2734 146.719 28.1016ZM155.508 37.4844V33.125C155.508 32.724 155.424 32.3776 155.258 32.0859C155.091 31.7943 154.846 31.5703 154.523 31.4141C154.201 31.2578 153.802 31.1797 153.328 31.1797C152.891 31.1797 152.5 31.2578 152.156 31.4141C151.818 31.5651 151.549 31.7708 151.352 32.0312C151.159 32.2865 151.062 32.5703 151.062 32.8828L150.125 32.875C150.125 32.5573 150.203 32.25 150.359 31.9531C150.516 31.6562 150.737 31.3906 151.023 31.1562C151.31 30.9219 151.651 30.737 152.047 30.6016C152.448 30.4609 152.888 30.3906 153.367 30.3906C153.971 30.3906 154.503 30.4922 154.961 30.6953C155.424 30.8984 155.786 31.2031 156.047 31.6094C156.307 32.0156 156.438 32.526 156.438 33.1406V37.2266C156.438 37.5182 156.458 37.8203 156.5 38.1328C156.547 38.4453 156.612 38.7031 156.695 38.9062V39H155.703C155.641 38.8125 155.591 38.5781 155.555 38.2969C155.523 38.0104 155.508 37.7396 155.508 37.4844ZM155.727 34.0781L155.742 34.7969H153.906C153.427 34.7969 152.997 34.8411 152.617 34.9297C152.242 35.013 151.924 35.138 151.664 35.3047C151.404 35.4661 151.203 35.6615 151.062 35.8906C150.927 36.1198 150.859 36.3802 150.859 36.6719C150.859 36.974 150.935 37.25 151.086 37.5C151.242 37.75 151.461 37.9505 151.742 38.1016C152.029 38.2474 152.367 38.3203 152.758 38.3203C153.279 38.3203 153.737 38.224 154.133 38.0312C154.534 37.8385 154.865 37.5859 155.125 37.2734C155.385 36.9609 155.56 36.6198 155.648 36.25L156.055 36.7891C155.987 37.0495 155.862 37.3177 155.68 37.5938C155.503 37.8646 155.271 38.1198 154.984 38.3594C154.698 38.5938 154.359 38.7865 153.969 38.9375C153.583 39.0833 153.146 39.1562 152.656 39.1562C152.104 39.1562 151.622 39.0521 151.211 38.8438C150.805 38.6354 150.487 38.3516 150.258 37.9922C150.034 37.6276 149.922 37.2161 149.922 36.7578C149.922 36.3411 150.01 35.9688 150.188 35.6406C150.365 35.3073 150.62 35.026 150.953 34.7969C151.292 34.5625 151.698 34.3854 152.172 34.2656C152.651 34.1406 153.188 34.0781 153.781 34.0781H155.727ZM159.984 27V39H159.055V27H159.984ZM169.562 38.3516C169.958 38.3516 170.328 38.2786 170.672 38.1328C171.021 37.9818 171.307 37.7604 171.531 37.4688C171.76 37.1719 171.891 36.8099 171.922 36.3828H172.812C172.786 36.9193 172.622 37.3984 172.32 37.8203C172.023 38.237 171.633 38.5651 171.148 38.8047C170.669 39.0391 170.141 39.1562 169.562 39.1562C168.974 39.1562 168.453 39.0495 168 38.8359C167.552 38.6224 167.177 38.3255 166.875 37.9453C166.573 37.5599 166.344 37.112 166.188 36.6016C166.036 36.0859 165.961 35.5312 165.961 34.9375V34.6094C165.961 34.0156 166.036 33.4635 166.188 32.9531C166.344 32.4375 166.573 31.9896 166.875 31.6094C167.177 31.224 167.552 30.9245 168 30.7109C168.448 30.4974 168.966 30.3906 169.555 30.3906C170.159 30.3906 170.701 30.513 171.18 30.7578C171.664 31.0026 172.049 31.349 172.336 31.7969C172.628 32.2448 172.786 32.776 172.812 33.3906H171.922C171.896 32.9375 171.776 32.5469 171.562 32.2188C171.349 31.8906 171.068 31.638 170.719 31.4609C170.37 31.2839 169.982 31.1953 169.555 31.1953C169.076 31.1953 168.667 31.2891 168.328 31.4766C167.99 31.6589 167.714 31.9115 167.5 32.2344C167.292 32.5521 167.138 32.9167 167.039 33.3281C166.94 33.7344 166.891 34.1615 166.891 34.6094V34.9375C166.891 35.3906 166.938 35.8229 167.031 36.2344C167.13 36.6406 167.284 37.0026 167.492 37.3203C167.706 37.638 167.982 37.8906 168.32 38.0781C168.664 38.2604 169.078 38.3516 169.562 38.3516ZM174.18 34.9062V34.6484C174.18 34.0339 174.268 33.4661 174.445 32.9453C174.622 32.4245 174.875 31.974 175.203 31.5938C175.536 31.2135 175.935 30.9193 176.398 30.7109C176.862 30.4974 177.378 30.3906 177.945 30.3906C178.518 30.3906 179.036 30.4974 179.5 30.7109C179.964 30.9193 180.362 31.2135 180.695 31.5938C181.029 31.974 181.284 32.4245 181.461 32.9453C181.638 33.4661 181.727 34.0339 181.727 34.6484V34.9062C181.727 35.5208 181.638 36.0885 181.461 36.6094C181.284 37.125 181.029 37.5729 180.695 37.9531C180.367 38.3333 179.971 38.6302 179.508 38.8438C179.044 39.0521 178.529 39.1562 177.961 39.1562C177.388 39.1562 176.87 39.0521 176.406 38.8438C175.943 38.6302 175.544 38.3333 175.211 37.9531C174.878 37.5729 174.622 37.125 174.445 36.6094C174.268 36.0885 174.18 35.5208 174.18 34.9062ZM175.109 34.6484V34.9062C175.109 35.3698 175.172 35.8099 175.297 36.2266C175.422 36.638 175.604 37.0052 175.844 37.3281C176.083 37.6458 176.38 37.8958 176.734 38.0781C177.089 38.2604 177.497 38.3516 177.961 38.3516C178.419 38.3516 178.823 38.2604 179.172 38.0781C179.526 37.8958 179.823 37.6458 180.062 37.3281C180.302 37.0052 180.482 36.638 180.602 36.2266C180.727 35.8099 180.789 35.3698 180.789 34.9062V34.6484C180.789 34.1901 180.727 33.7552 180.602 33.3438C180.482 32.9323 180.299 32.5651 180.055 32.2422C179.815 31.9193 179.518 31.6641 179.164 31.4766C178.81 31.2891 178.404 31.1953 177.945 31.1953C177.487 31.1953 177.081 31.2891 176.727 31.4766C176.378 31.6641 176.081 31.9193 175.836 32.2422C175.596 32.5651 175.414 32.9323 175.289 33.3438C175.169 33.7552 175.109 34.1901 175.109 34.6484ZM184.547 32.2969V39H183.609V30.5469H184.508L184.547 32.2969ZM184.375 34.25L183.922 34.0156C183.953 33.5156 184.047 33.0469 184.203 32.6094C184.365 32.1719 184.589 31.7865 184.875 31.4531C185.161 31.1198 185.505 30.8594 185.906 30.6719C186.307 30.4844 186.763 30.3906 187.273 30.3906C187.685 30.3906 188.057 30.4479 188.391 30.5625C188.729 30.6719 189.016 30.8464 189.25 31.0859C189.49 31.3203 189.674 31.6276 189.805 32.0078C189.935 32.388 190 32.8438 190 33.375V39H189.07V33.4062C189.07 32.8438 188.982 32.4036 188.805 32.0859C188.633 31.7682 188.391 31.5417 188.078 31.4062C187.771 31.2708 187.414 31.2031 187.008 31.2031C186.529 31.2031 186.122 31.3021 185.789 31.5C185.461 31.6927 185.193 31.9453 184.984 32.2578C184.781 32.5651 184.63 32.8958 184.531 33.25C184.432 33.599 184.38 33.9323 184.375 34.25ZM189.992 33.5156L189.367 33.5312C189.393 33.1198 189.487 32.7266 189.648 32.3516C189.815 31.9766 190.042 31.6432 190.328 31.3516C190.615 31.0547 190.956 30.8203 191.352 30.6484C191.753 30.4766 192.203 30.3906 192.703 30.3906C193.141 30.3906 193.531 30.4505 193.875 30.5703C194.219 30.6849 194.508 30.8698 194.742 31.125C194.982 31.375 195.164 31.6953 195.289 32.0859C195.414 32.4766 195.477 32.9453 195.477 33.4922V39H194.539V33.4844C194.539 32.8854 194.451 32.4219 194.273 32.0938C194.102 31.7604 193.862 31.5286 193.555 31.3984C193.247 31.2682 192.888 31.2031 192.477 31.2031C192.07 31.2083 191.714 31.2839 191.406 31.4297C191.099 31.5703 190.841 31.7578 190.633 31.9922C190.43 32.2214 190.273 32.4688 190.164 32.7344C190.06 33 190.003 33.2604 189.992 33.5156ZM198.773 32.1719V42.25H197.836V30.5469H198.711L198.773 32.1719ZM204.648 34.6953V34.8594C204.648 35.4896 204.576 36.0677 204.43 36.5938C204.284 37.1198 204.073 37.5755 203.797 37.9609C203.526 38.3411 203.19 38.6354 202.789 38.8438C202.388 39.0521 201.932 39.1562 201.422 39.1562C200.917 39.1562 200.466 39.0781 200.07 38.9219C199.674 38.7656 199.333 38.5443 199.047 38.2578C198.766 37.9661 198.539 37.6276 198.367 37.2422C198.201 36.8516 198.083 36.4245 198.016 35.9609V33.7969C198.094 33.2865 198.221 32.8229 198.398 32.4062C198.576 31.9896 198.802 31.6302 199.078 31.3281C199.359 31.026 199.693 30.7943 200.078 30.6328C200.464 30.4714 200.904 30.3906 201.398 30.3906C201.914 30.3906 202.372 30.4922 202.773 30.6953C203.18 30.8932 203.521 31.1823 203.797 31.5625C204.078 31.9375 204.289 32.3906 204.43 32.9219C204.576 33.4479 204.648 34.0391 204.648 34.6953ZM203.711 34.8594V34.6953C203.711 34.2005 203.659 33.7422 203.555 33.3203C203.456 32.8984 203.302 32.5312 203.094 32.2188C202.891 31.901 202.63 31.6536 202.312 31.4766C202 31.2995 201.628 31.2109 201.195 31.2109C200.747 31.2109 200.365 31.2865 200.047 31.4375C199.734 31.5833 199.474 31.7786 199.266 32.0234C199.057 32.263 198.893 32.526 198.773 32.8125C198.654 33.099 198.565 33.3802 198.508 33.6562V36.1484C198.607 36.5443 198.766 36.9115 198.984 37.25C199.203 37.5833 199.495 37.8516 199.859 38.0547C200.229 38.2526 200.68 38.3516 201.211 38.3516C201.638 38.3516 202.008 38.263 202.32 38.0859C202.633 37.9089 202.891 37.6615 203.094 37.3438C203.302 37.026 203.456 36.6562 203.555 36.2344C203.659 35.8125 203.711 35.3542 203.711 34.8594ZM211.867 37.4844V33.125C211.867 32.724 211.784 32.3776 211.617 32.0859C211.451 31.7943 211.206 31.5703 210.883 31.4141C210.56 31.2578 210.161 31.1797 209.688 31.1797C209.25 31.1797 208.859 31.2578 208.516 31.4141C208.177 31.5651 207.909 31.7708 207.711 32.0312C207.518 32.2865 207.422 32.5703 207.422 32.8828L206.484 32.875C206.484 32.5573 206.562 32.25 206.719 31.9531C206.875 31.6562 207.096 31.3906 207.383 31.1562C207.669 30.9219 208.01 30.737 208.406 30.6016C208.807 30.4609 209.247 30.3906 209.727 30.3906C210.331 30.3906 210.862 30.4922 211.32 30.6953C211.784 30.8984 212.146 31.2031 212.406 31.6094C212.667 32.0156 212.797 32.526 212.797 33.1406V37.2266C212.797 37.5182 212.818 37.8203 212.859 38.1328C212.906 38.4453 212.971 38.7031 213.055 38.9062V39H212.062C212 38.8125 211.951 38.5781 211.914 38.2969C211.883 38.0104 211.867 37.7396 211.867 37.4844ZM212.086 34.0781L212.102 34.7969H210.266C209.786 34.7969 209.357 34.8411 208.977 34.9297C208.602 35.013 208.284 35.138 208.023 35.3047C207.763 35.4661 207.562 35.6615 207.422 35.8906C207.286 36.1198 207.219 36.3802 207.219 36.6719C207.219 36.974 207.294 37.25 207.445 37.5C207.602 37.75 207.82 37.9505 208.102 38.1016C208.388 38.2474 208.727 38.3203 209.117 38.3203C209.638 38.3203 210.096 38.224 210.492 38.0312C210.893 37.8385 211.224 37.5859 211.484 37.2734C211.745 36.9609 211.919 36.6198 212.008 36.25L212.414 36.7891C212.346 37.0495 212.221 37.3177 212.039 37.5938C211.862 37.8646 211.63 38.1198 211.344 38.3594C211.057 38.5938 210.719 38.7865 210.328 38.9375C209.943 39.0833 209.505 39.1562 209.016 39.1562C208.464 39.1562 207.982 39.0521 207.57 38.8438C207.164 38.6354 206.846 38.3516 206.617 37.9922C206.393 37.6276 206.281 37.2161 206.281 36.7578C206.281 36.3411 206.37 35.9688 206.547 35.6406C206.724 35.3073 206.979 35.026 207.312 34.7969C207.651 34.5625 208.057 34.3854 208.531 34.2656C209.01 34.1406 209.547 34.0781 210.141 34.0781H212.086ZM216.234 32.3516V39H215.305V30.5469H216.195L216.234 32.3516ZM216.023 34.25L215.609 34.0156C215.641 33.5156 215.742 33.0469 215.914 32.6094C216.086 32.1719 216.318 31.7865 216.609 31.4531C216.906 31.1198 217.253 30.8594 217.648 30.6719C218.049 30.4844 218.492 30.3906 218.977 30.3906C219.398 30.3906 219.776 30.4479 220.109 30.5625C220.443 30.6771 220.727 30.8594 220.961 31.1094C221.195 31.3594 221.372 31.6797 221.492 32.0703C221.617 32.4609 221.68 32.9375 221.68 33.5V39H220.742V33.4922C220.742 32.9089 220.661 32.4531 220.5 32.125C220.339 31.7917 220.109 31.5547 219.812 31.4141C219.516 31.2734 219.164 31.2031 218.758 31.2031C218.31 31.2031 217.917 31.3021 217.578 31.5C217.245 31.6927 216.964 31.9453 216.734 32.2578C216.51 32.5651 216.339 32.8958 216.219 33.25C216.099 33.599 216.034 33.9323 216.023 34.25ZM226.609 38.1562L229.242 30.5469H230.25L226.672 40.3594C226.599 40.5521 226.505 40.7656 226.391 41C226.281 41.2344 226.135 41.4583 225.953 41.6719C225.776 41.8906 225.552 42.0677 225.281 42.2031C225.016 42.3438 224.69 42.4141 224.305 42.4141C224.206 42.4141 224.078 42.401 223.922 42.375C223.771 42.3542 223.661 42.3333 223.594 42.3125L223.586 41.5234C223.643 41.5391 223.727 41.5521 223.836 41.5625C223.945 41.5729 224.021 41.5781 224.062 41.5781C224.401 41.5781 224.685 41.5208 224.914 41.4062C225.148 41.2917 225.344 41.1198 225.5 40.8906C225.656 40.6667 225.794 40.3854 225.914 40.0469L226.609 38.1562ZM224.148 30.5469L226.844 37.8047L227.094 38.7812L226.414 39.1641L223.133 30.5469H224.148Z" fill="#F5F5F5"/>
<path d="M13.0916 58.1333L16.0406 56.4148L23.1875 60.4887L30.3315 56.4152L33.278 58.1379L23.1867 63.9999L13.0916 58.1333Z" fill="#FFBE58"/>
<path d="M21.6826 54.2266L23.181 53.3337L24.6913 54.2266V56.7918L23.181 57.6724L21.6826 56.7918V54.2266Z" fill="#FFBE58"/>
<path d="M17.4216 43.8779V5.83498L20.4291 4.12976V45.5709L8.87446 52.3359L5.77344 50.6283L17.4216 43.8779Z" fill="#FFBE58"/>
<path d="M29.0896 43.853V5.81007L26.0821 4.10486V45.546L37.6368 52.311L40.7378 50.6034L29.0896 43.853Z" fill="#FFBE58"/>
<path d="M13.1572 41.4225V11.0947L16.1286 9.41394V43.1332L4.49766 49.8952L2.6272 48.8923V47.5539L13.1572 41.4225Z" fill="#FFBE58"/>
<path d="M33.2163 41.4225V11.0947L30.2449 9.41394V43.1332L41.8759 49.8952L43.7463 48.8923V47.5539L33.2163 41.4225Z" fill="#FFBE58"/>
<path d="M8.86365 38.9573V18.6491L11.8414 16.9261V40.6237L2.56689 46.1864V42.4683L4.63307 41.2504V26.0124L7.64179 24.254V39.6546L8.86365 38.9573Z" fill="#FFBE58"/>
<path d="M37.4496 38.9573V18.6491L34.4718 16.9261V40.6237L43.7463 46.1864V42.4683L41.6802 41.2504V26.0124L38.6714 24.254V39.6546L37.4496 38.9573Z" fill="#FFBE58"/>
<path d="M21.6825 0.818747L23.1885 0L24.6912 0.818747V46.3812L36.2237 53.0269L43.7464 48.8923V25.6759L38.7319 22.8168V19.4202L46.3804 23.8197V50.5862L36.2237 56.4157L23.189 48.8923L10.1476 56.4153L0 50.5875V23.8197L7.57304 19.4202V22.8168L2.62731 25.6759V48.8923L10.1515 53.0269L21.6825 46.3812V0.818747Z" fill="#FFBE58"/>
</svg>
