<svg width="314" height="46" viewBox="0 0 314 46" fill="none" xmlns="http://www.w3.org/2000/svg">
<path d="M56.4258 25.7617V13.9375H59.9297V25.7617C59.9297 26.9023 59.6797 27.8828 59.1797 28.7031C58.6797 29.5156 57.9961 30.1406 57.1289 30.5781C56.2695 31.0156 55.3008 31.2344 54.2227 31.2344C53.1055 31.2344 52.1172 31.0469 51.2578 30.6719C50.3984 30.2969 49.7227 29.7227 49.2305 28.9492C48.7383 28.168 48.4922 27.1797 48.4922 25.9844H52.0195C52.0195 26.6094 52.1055 27.1055 52.2773 27.4727C52.457 27.8398 52.7109 28.1016 53.0391 28.2578C53.3672 28.4141 53.7617 28.4922 54.2227 28.4922C54.668 28.4922 55.0547 28.3867 55.3828 28.1758C55.7109 27.9648 55.9648 27.6562 56.1445 27.25C56.332 26.8438 56.4258 26.3477 56.4258 25.7617ZM65.4023 21.8711L68.6836 19.75C69.168 19.4297 69.4922 19.1211 69.6562 18.8242C69.8203 18.5273 69.9023 18.1953 69.9023 17.8281C69.9023 17.4609 69.7656 17.1211 69.4922 16.8086C69.2188 16.4883 68.8359 16.3281 68.3438 16.3281C67.9922 16.3281 67.6953 16.4102 67.4531 16.5742C67.2109 16.7305 67.0273 16.9414 66.9023 17.207C66.7852 17.4727 66.7266 17.7695 66.7266 18.0977C66.7266 18.4492 66.8203 18.8086 67.0078 19.1758C67.1953 19.5352 67.4492 19.918 67.7695 20.3242C68.0898 20.7227 68.4453 21.1562 68.8359 21.625L76.8867 31H73.0547L66.4922 23.4062C65.9375 22.7188 65.4531 22.0898 65.0391 21.5195C64.625 20.9414 64.3008 20.3789 64.0664 19.832C63.832 19.2852 63.7148 18.7227 63.7148 18.1445C63.7148 17.2539 63.9062 16.4766 64.2891 15.8125C64.6719 15.1406 65.2109 14.6211 65.9062 14.2539C66.6016 13.8789 67.418 13.6914 68.3555 13.6914C69.2383 13.6914 70.0039 13.875 70.6523 14.2422C71.3008 14.6016 71.8008 15.0781 72.1523 15.6719C72.5117 16.2656 72.6914 16.918 72.6914 17.6289C72.6914 18.1602 72.5938 18.6523 72.3984 19.1055C72.2031 19.5508 71.9336 19.9648 71.5898 20.3477C71.2461 20.7227 70.8516 21.0703 70.4062 21.3906L66.668 24.0508C66.3789 24.3164 66.1602 24.5781 66.0117 24.8359C65.8633 25.0938 65.7617 25.3398 65.707 25.5742C65.6523 25.8008 65.625 26.0195 65.625 26.2305C65.625 26.6836 65.7227 27.0898 65.918 27.4492C66.1133 27.8086 66.3867 28.0898 66.7383 28.293C67.0898 28.4961 67.5 28.5977 67.9688 28.5977C68.6094 28.5977 69.2305 28.457 69.832 28.1758C70.4336 27.8945 70.9727 27.4922 71.4492 26.9688C71.9258 26.4375 72.3047 25.8086 72.5859 25.082C72.8672 24.3555 73.0078 23.5547 73.0078 22.6797H75.8672C75.8672 23.5547 75.7812 24.3867 75.6094 25.1758C75.4375 25.957 75.1602 26.6836 74.7773 27.3555C74.3945 28.0195 73.8867 28.6094 73.2539 29.125C73.207 29.1641 73.1406 29.2227 73.0547 29.3008C72.9766 29.3711 72.9102 29.4258 72.8555 29.4648C72.1055 30.0664 71.3242 30.5156 70.5117 30.8125C69.6992 31.1016 68.793 31.2461 67.793 31.2461C66.6523 31.2461 65.6641 31.0391 64.8281 30.625C64 30.2109 63.3594 29.6406 62.9062 28.9141C62.4609 28.1875 62.2383 27.3555 62.2383 26.418C62.2383 25.7305 62.3711 25.1328 62.6367 24.625C62.9102 24.1094 63.2852 23.6328 63.7617 23.1953C64.2383 22.7578 64.7852 22.3164 65.4023 21.8711ZM85.6641 16.8555L81.0234 31H77.2852L83.625 13.9375H86.0039L85.6641 16.8555ZM89.5195 31L84.8672 16.8555L84.4922 13.9375H86.8945L93.2695 31H89.5195ZM89.3086 24.6484V27.4023H80.2969V24.6484H89.3086ZM102.539 20.418V31H101.145V18.3203H102.504L102.539 20.418ZM107.027 18.2266L106.992 19.5156C106.836 19.4922 106.684 19.4727 106.535 19.457C106.387 19.4414 106.227 19.4336 106.055 19.4336C105.445 19.4336 104.91 19.5469 104.449 19.7734C103.996 19.9922 103.613 20.3008 103.301 20.6992C102.988 21.0898 102.75 21.5508 102.586 22.082C102.422 22.6055 102.328 23.168 102.305 23.7695L101.789 23.9688C101.789 23.1406 101.875 22.3711 102.047 21.6602C102.219 20.9492 102.48 20.3281 102.832 19.7969C103.191 19.2578 103.641 18.8398 104.18 18.543C104.727 18.2383 105.367 18.0859 106.102 18.0859C106.281 18.0859 106.457 18.1016 106.629 18.1328C106.809 18.1562 106.941 18.1875 107.027 18.2266ZM113.895 31.2344C113.066 31.2344 112.305 31.082 111.609 30.7773C110.922 30.4727 110.32 30.043 109.805 29.4883C109.297 28.9336 108.902 28.2773 108.621 27.5195C108.348 26.7539 108.211 25.918 108.211 25.0117V24.5078C108.211 23.5312 108.355 22.6484 108.645 21.8594C108.934 21.0703 109.332 20.3945 109.84 19.832C110.348 19.2695 110.926 18.8398 111.574 18.543C112.23 18.2383 112.918 18.0859 113.637 18.0859C114.441 18.0859 115.156 18.2305 115.781 18.5195C116.406 18.8008 116.93 19.2031 117.352 19.7266C117.781 20.2422 118.105 20.8555 118.324 21.5664C118.543 22.2695 118.652 23.0469 118.652 23.8984V24.7539H109.055V23.5586H117.258V23.3945C117.242 22.6836 117.098 22.0195 116.824 21.4023C116.559 20.7773 116.16 20.2695 115.629 19.8789C115.098 19.4883 114.434 19.293 113.637 19.293C113.043 19.293 112.496 19.418 111.996 19.668C111.504 19.918 111.078 20.2773 110.719 20.7461C110.367 21.207 110.094 21.7578 109.898 22.3984C109.711 23.0312 109.617 23.7344 109.617 24.5078V25.0117C109.617 25.7148 109.719 26.3711 109.922 26.9805C110.133 27.582 110.43 28.1133 110.812 28.5742C111.203 29.0352 111.664 29.3945 112.195 29.6523C112.727 29.9102 113.312 30.0391 113.953 30.0391C114.703 30.0391 115.367 29.9023 115.945 29.6289C116.523 29.3477 117.043 28.9062 117.504 28.3047L118.383 28.9844C118.109 29.3906 117.766 29.7656 117.352 30.1094C116.945 30.4531 116.457 30.7266 115.887 30.9297C115.316 31.1328 114.652 31.2344 113.895 31.2344ZM129.012 27.7656C129.012 27.4219 128.926 27.082 128.754 26.7461C128.582 26.4102 128.25 26.1016 127.758 25.8203C127.273 25.5391 126.559 25.3008 125.613 25.1055C124.91 24.9492 124.281 24.7734 123.727 24.5781C123.18 24.3828 122.719 24.1484 122.344 23.875C121.969 23.6016 121.684 23.2734 121.488 22.8906C121.293 22.5078 121.195 22.0547 121.195 21.5312C121.195 21.0625 121.297 20.6211 121.5 20.207C121.711 19.7852 122.008 19.418 122.391 19.1055C122.781 18.7852 123.25 18.5352 123.797 18.3555C124.352 18.1758 124.973 18.0859 125.66 18.0859C126.637 18.0859 127.473 18.2539 128.168 18.5898C128.871 18.918 129.406 19.3672 129.773 19.9375C130.148 20.5078 130.336 21.1523 130.336 21.8711H128.941C128.941 21.4336 128.812 21.0195 128.555 20.6289C128.305 20.2383 127.934 19.918 127.441 19.668C126.957 19.418 126.363 19.293 125.66 19.293C124.934 19.293 124.344 19.4023 123.891 19.6211C123.438 19.8398 123.105 20.1172 122.895 20.4531C122.691 20.7891 122.59 21.1367 122.59 21.4961C122.59 21.7773 122.633 22.0352 122.719 22.2695C122.812 22.4961 122.977 22.707 123.211 22.9023C123.453 23.0977 123.797 23.2812 124.242 23.4531C124.688 23.625 125.266 23.793 125.977 23.957C127 24.1836 127.836 24.4609 128.484 24.7891C129.141 25.1094 129.625 25.5078 129.938 25.9844C130.25 26.4531 130.406 27.0234 130.406 27.6953C130.406 28.2188 130.297 28.6992 130.078 29.1367C129.859 29.5664 129.543 29.9375 129.129 30.25C128.723 30.5625 128.23 30.8047 127.652 30.9766C127.082 31.1484 126.441 31.2344 125.73 31.2344C124.66 31.2344 123.754 31.0586 123.012 30.707C122.277 30.3477 121.719 29.8789 121.336 29.3008C120.961 28.7148 120.773 28.0938 120.773 27.4375H122.168C122.215 28.0938 122.422 28.6133 122.789 28.9961C123.156 29.3711 123.605 29.6367 124.137 29.793C124.676 29.9492 125.207 30.0273 125.73 30.0273C126.449 30.0273 127.051 29.9219 127.535 29.7109C128.02 29.5 128.387 29.2227 128.637 28.8789C128.887 28.5352 129.012 28.1641 129.012 27.7656ZM135.141 18.3203V31H133.746V18.3203H135.141ZM133.5 14.6523C133.5 14.3867 133.582 14.1641 133.746 13.9844C133.918 13.7969 134.152 13.7031 134.449 13.7031C134.746 13.7031 134.98 13.7969 135.152 13.9844C135.332 14.1641 135.422 14.3867 135.422 14.6523C135.422 14.9102 135.332 15.1328 135.152 15.3203C134.98 15.5 134.746 15.5898 134.449 15.5898C134.152 15.5898 133.918 15.5 133.746 15.3203C133.582 15.1328 133.5 14.9102 133.5 14.6523ZM147.211 28.5391V13H148.617V31H147.305L147.211 28.5391ZM138.41 24.7891V24.543C138.41 23.5586 138.523 22.6719 138.75 21.8828C138.977 21.0859 139.301 20.4062 139.723 19.8438C140.152 19.2734 140.668 18.8398 141.27 18.543C141.871 18.2383 142.551 18.0859 143.309 18.0859C144.051 18.0859 144.707 18.207 145.277 18.4492C145.848 18.6914 146.336 19.0391 146.742 19.4922C147.156 19.9453 147.488 20.4844 147.738 21.1094C147.996 21.7344 148.184 22.4297 148.301 23.1953V26.3242C148.207 27.043 148.035 27.7031 147.785 28.3047C147.535 28.8984 147.203 29.418 146.789 29.8633C146.375 30.3008 145.875 30.6406 145.289 30.8828C144.711 31.1172 144.043 31.2344 143.285 31.2344C142.535 31.2344 141.859 31.0781 141.258 30.7656C140.656 30.4531 140.145 30.0117 139.723 29.4414C139.301 28.8633 138.977 28.1797 138.75 27.3906C138.523 26.6016 138.41 25.7344 138.41 24.7891ZM139.816 24.543V24.7891C139.816 25.5312 139.891 26.2188 140.039 26.8516C140.188 27.4844 140.414 28.0352 140.719 28.5039C141.023 28.9727 141.41 29.3398 141.879 29.6055C142.348 29.8711 142.902 30.0039 143.543 30.0039C144.348 30.0039 145.023 29.8516 145.57 29.5469C146.117 29.2344 146.555 28.8242 146.883 28.3164C147.211 27.8008 147.449 27.2383 147.598 26.6289V22.9844C147.504 22.5703 147.367 22.1484 147.188 21.7188C147.008 21.2891 146.762 20.8945 146.449 20.5352C146.145 20.168 145.754 19.875 145.277 19.6562C144.809 19.4297 144.238 19.3164 143.566 19.3164C142.918 19.3164 142.359 19.4492 141.891 19.7148C141.422 19.9805 141.031 20.3516 140.719 20.8281C140.414 21.2969 140.188 21.8477 140.039 22.4805C139.891 23.1133 139.816 23.8008 139.816 24.543ZM157.207 31.2344C156.379 31.2344 155.617 31.082 154.922 30.7773C154.234 30.4727 153.633 30.043 153.117 29.4883C152.609 28.9336 152.215 28.2773 151.934 27.5195C151.66 26.7539 151.523 25.918 151.523 25.0117V24.5078C151.523 23.5312 151.668 22.6484 151.957 21.8594C152.246 21.0703 152.645 20.3945 153.152 19.832C153.66 19.2695 154.238 18.8398 154.887 18.543C155.543 18.2383 156.23 18.0859 156.949 18.0859C157.754 18.0859 158.469 18.2305 159.094 18.5195C159.719 18.8008 160.242 19.2031 160.664 19.7266C161.094 20.2422 161.418 20.8555 161.637 21.5664C161.855 22.2695 161.965 23.0469 161.965 23.8984V24.7539H152.367V23.5586H160.57V23.3945C160.555 22.6836 160.41 22.0195 160.137 21.4023C159.871 20.7773 159.473 20.2695 158.941 19.8789C158.41 19.4883 157.746 19.293 156.949 19.293C156.355 19.293 155.809 19.418 155.309 19.668C154.816 19.918 154.391 20.2773 154.031 20.7461C153.68 21.207 153.406 21.7578 153.211 22.3984C153.023 23.0312 152.93 23.7344 152.93 24.5078V25.0117C152.93 25.7148 153.031 26.3711 153.234 26.9805C153.445 27.582 153.742 28.1133 154.125 28.5742C154.516 29.0352 154.977 29.3945 155.508 29.6523C156.039 29.9102 156.625 30.0391 157.266 30.0391C158.016 30.0391 158.68 29.9023 159.258 29.6289C159.836 29.3477 160.355 28.9062 160.816 28.3047L161.695 28.9844C161.422 29.3906 161.078 29.7656 160.664 30.1094C160.258 30.4531 159.77 30.7266 159.199 30.9297C158.629 31.1328 157.965 31.2344 157.207 31.2344ZM166.125 21.0273V31H164.73V18.3203H166.066L166.125 21.0273ZM165.809 23.875L165.188 23.5234C165.234 22.7734 165.387 22.0703 165.645 21.4141C165.902 20.7578 166.25 20.1797 166.688 19.6797C167.133 19.1797 167.652 18.7891 168.246 18.5078C168.848 18.2266 169.512 18.0859 170.238 18.0859C170.871 18.0859 171.438 18.1719 171.938 18.3438C172.438 18.5156 172.863 18.7891 173.215 19.1641C173.566 19.5391 173.832 20.0195 174.012 20.6055C174.199 21.1914 174.293 21.9062 174.293 22.75V31H172.887V22.7383C172.887 21.8633 172.766 21.1797 172.523 20.6875C172.281 20.1875 171.938 19.832 171.492 19.6211C171.047 19.4102 170.52 19.3047 169.91 19.3047C169.238 19.3047 168.648 19.4531 168.141 19.75C167.641 20.0391 167.219 20.418 166.875 20.8867C166.539 21.3477 166.281 21.8438 166.102 22.375C165.922 22.8984 165.824 23.3984 165.809 23.875ZM182.719 18.3203V19.4688H176.367V18.3203H182.719ZM178.699 15.0625H180.094V27.918C180.094 28.5039 180.172 28.9453 180.328 29.2422C180.484 29.5391 180.688 29.7383 180.938 29.8398C181.188 29.9414 181.457 29.9922 181.746 29.9922C181.957 29.9922 182.16 29.9805 182.355 29.957C182.551 29.9258 182.727 29.8945 182.883 29.8633L182.941 31.0469C182.77 31.1016 182.547 31.1445 182.273 31.1758C182 31.2148 181.727 31.2344 181.453 31.2344C180.914 31.2344 180.438 31.1367 180.023 30.9414C179.609 30.7383 179.285 30.3945 179.051 29.9102C178.816 29.418 178.699 28.75 178.699 27.9062V15.0625ZM187.219 18.3203V31H185.824V18.3203H187.219ZM185.578 14.6523C185.578 14.3867 185.66 14.1641 185.824 13.9844C185.996 13.7969 186.23 13.7031 186.527 13.7031C186.824 13.7031 187.059 13.7969 187.23 13.9844C187.41 14.1641 187.5 14.3867 187.5 14.6523C187.5 14.9102 187.41 15.1328 187.23 15.3203C187.059 15.5 186.824 15.5898 186.527 15.5898C186.23 15.5898 185.996 15.5 185.824 15.3203C185.66 15.1328 185.578 14.9102 185.578 14.6523ZM198.762 28.7266V22.1875C198.762 21.5859 198.637 21.0664 198.387 20.6289C198.137 20.1914 197.77 19.8555 197.285 19.6211C196.801 19.3867 196.203 19.2695 195.492 19.2695C194.836 19.2695 194.25 19.3867 193.734 19.6211C193.227 19.8477 192.824 20.1562 192.527 20.5469C192.238 20.9297 192.094 21.3555 192.094 21.8242L190.688 21.8125C190.688 21.3359 190.805 20.875 191.039 20.4297C191.273 19.9844 191.605 19.5859 192.035 19.2344C192.465 18.8828 192.977 18.6055 193.57 18.4023C194.172 18.1914 194.832 18.0859 195.551 18.0859C196.457 18.0859 197.254 18.2383 197.941 18.543C198.637 18.8477 199.18 19.3047 199.57 19.9141C199.961 20.5234 200.156 21.2891 200.156 22.2109V28.3398C200.156 28.7773 200.188 29.2305 200.25 29.6992C200.32 30.168 200.418 30.5547 200.543 30.8594V31H199.055C198.961 30.7188 198.887 30.3672 198.832 29.9453C198.785 29.5156 198.762 29.1094 198.762 28.7266ZM199.09 23.6172L199.113 24.6953H196.359C195.641 24.6953 194.996 24.7617 194.426 24.8945C193.863 25.0195 193.387 25.207 192.996 25.457C192.605 25.6992 192.305 25.9922 192.094 26.3359C191.891 26.6797 191.789 27.0703 191.789 27.5078C191.789 27.9609 191.902 28.375 192.129 28.75C192.363 29.125 192.691 29.4258 193.113 29.6523C193.543 29.8711 194.051 29.9805 194.637 29.9805C195.418 29.9805 196.105 29.8359 196.699 29.5469C197.301 29.2578 197.797 28.8789 198.188 28.4102C198.578 27.9414 198.84 27.4297 198.973 26.875L199.582 27.6836C199.48 28.0742 199.293 28.4766 199.02 28.8906C198.754 29.2969 198.406 29.6797 197.977 30.0391C197.547 30.3906 197.039 30.6797 196.453 30.9062C195.875 31.125 195.219 31.2344 194.484 31.2344C193.656 31.2344 192.934 31.0781 192.316 30.7656C191.707 30.4531 191.23 30.0273 190.887 29.4883C190.551 28.9414 190.383 28.3242 190.383 27.6367C190.383 27.0117 190.516 26.4531 190.781 25.9609C191.047 25.4609 191.43 25.0391 191.93 24.6953C192.438 24.3438 193.047 24.0781 193.758 23.8984C194.477 23.7109 195.281 23.6172 196.172 23.6172H199.09ZM205.477 13V31H204.082V13H205.477ZM219.844 30.0273C220.438 30.0273 220.992 29.918 221.508 29.6992C222.031 29.4727 222.461 29.1406 222.797 28.7031C223.141 28.2578 223.336 27.7148 223.383 27.0742H224.719C224.68 27.8789 224.434 28.5977 223.98 29.2305C223.535 29.8555 222.949 30.3477 222.223 30.707C221.504 31.0586 220.711 31.2344 219.844 31.2344C218.961 31.2344 218.18 31.0742 217.5 30.7539C216.828 30.4336 216.266 29.9883 215.812 29.418C215.359 28.8398 215.016 28.168 214.781 27.4023C214.555 26.6289 214.441 25.7969 214.441 24.9062V24.4141C214.441 23.5234 214.555 22.6953 214.781 21.9297C215.016 21.1562 215.359 20.4844 215.812 19.9141C216.266 19.3359 216.828 18.8867 217.5 18.5664C218.172 18.2461 218.949 18.0859 219.832 18.0859C220.738 18.0859 221.551 18.2695 222.27 18.6367C222.996 19.0039 223.574 19.5234 224.004 20.1953C224.441 20.8672 224.68 21.6641 224.719 22.5859H223.383C223.344 21.9062 223.164 21.3203 222.844 20.8281C222.523 20.3359 222.102 19.957 221.578 19.6914C221.055 19.4258 220.473 19.293 219.832 19.293C219.113 19.293 218.5 19.4336 217.992 19.7148C217.484 19.9883 217.07 20.3672 216.75 20.8516C216.438 21.3281 216.207 21.875 216.059 22.4922C215.91 23.1016 215.836 23.7422 215.836 24.4141V24.9062C215.836 25.5859 215.906 26.2344 216.047 26.8516C216.195 27.4609 216.426 28.0039 216.738 28.4805C217.059 28.957 217.473 29.3359 217.98 29.6172C218.496 29.8906 219.117 30.0273 219.844 30.0273ZM226.77 24.8594V24.4727C226.77 23.5508 226.902 22.6992 227.168 21.918C227.434 21.1367 227.812 20.4609 228.305 19.8906C228.805 19.3203 229.402 18.8789 230.098 18.5664C230.793 18.2461 231.566 18.0859 232.418 18.0859C233.277 18.0859 234.055 18.2461 234.75 18.5664C235.445 18.8789 236.043 19.3203 236.543 19.8906C237.043 20.4609 237.426 21.1367 237.691 21.918C237.957 22.6992 238.09 23.5508 238.09 24.4727V24.8594C238.09 25.7812 237.957 26.6328 237.691 27.4141C237.426 28.1875 237.043 28.8594 236.543 29.4297C236.051 30 235.457 30.4453 234.762 30.7656C234.066 31.0781 233.293 31.2344 232.441 31.2344C231.582 31.2344 230.805 31.0781 230.109 30.7656C229.414 30.4453 228.816 30 228.316 29.4297C227.816 28.8594 227.434 28.1875 227.168 27.4141C226.902 26.6328 226.77 25.7812 226.77 24.8594ZM228.164 24.4727V24.8594C228.164 25.5547 228.258 26.2148 228.445 26.8398C228.633 27.457 228.906 28.0078 229.266 28.4922C229.625 28.9688 230.07 29.3438 230.602 29.6172C231.133 29.8906 231.746 30.0273 232.441 30.0273C233.129 30.0273 233.734 29.8906 234.258 29.6172C234.789 29.3438 235.234 28.9688 235.594 28.4922C235.953 28.0078 236.223 27.457 236.402 26.8398C236.59 26.2148 236.684 25.5547 236.684 24.8594V24.4727C236.684 23.7852 236.59 23.1328 236.402 22.5156C236.223 21.8984 235.949 21.3477 235.582 20.8633C235.223 20.3789 234.777 19.9961 234.246 19.7148C233.715 19.4336 233.105 19.293 232.418 19.293C231.73 19.293 231.121 19.4336 230.59 19.7148C230.066 19.9961 229.621 20.3789 229.254 20.8633C228.895 21.3477 228.621 21.8984 228.434 22.5156C228.254 23.1328 228.164 23.7852 228.164 24.4727ZM242.32 20.9453V31H240.914V18.3203H242.262L242.32 20.9453ZM242.062 23.875L241.383 23.5234C241.43 22.7734 241.57 22.0703 241.805 21.4141C242.047 20.7578 242.383 20.1797 242.812 19.6797C243.242 19.1797 243.758 18.7891 244.359 18.5078C244.961 18.2266 245.645 18.0859 246.41 18.0859C247.027 18.0859 247.586 18.1719 248.086 18.3438C248.594 18.5078 249.023 18.7695 249.375 19.1289C249.734 19.4805 250.012 19.9414 250.207 20.5117C250.402 21.082 250.5 21.7656 250.5 22.5625V31H249.105V22.6094C249.105 21.7656 248.973 21.1055 248.707 20.6289C248.449 20.1523 248.086 19.8125 247.617 19.6094C247.156 19.4062 246.621 19.3047 246.012 19.3047C245.293 19.3047 244.684 19.4531 244.184 19.75C243.691 20.0391 243.289 20.418 242.977 20.8867C242.672 21.3477 242.445 21.8438 242.297 22.375C242.148 22.8984 242.07 23.3984 242.062 23.875ZM250.488 22.7734L249.551 22.7969C249.59 22.1797 249.73 21.5898 249.973 21.0273C250.223 20.4648 250.562 19.9648 250.992 19.5273C251.422 19.082 251.934 18.7305 252.527 18.4727C253.129 18.2148 253.805 18.0859 254.555 18.0859C255.211 18.0859 255.797 18.1758 256.312 18.3555C256.828 18.5273 257.262 18.8047 257.613 19.1875C257.973 19.5625 258.246 20.043 258.434 20.6289C258.621 21.2148 258.715 21.918 258.715 22.7383V31H257.309V22.7266C257.309 21.8281 257.176 21.1328 256.91 20.6406C256.652 20.1406 256.293 19.793 255.832 19.5977C255.371 19.4023 254.832 19.3047 254.215 19.3047C253.605 19.3125 253.07 19.4258 252.609 19.6445C252.148 19.8555 251.762 20.1367 251.449 20.4883C251.145 20.832 250.91 21.2031 250.746 21.6016C250.59 22 250.504 22.3906 250.488 22.7734ZM263.66 20.7578V35.875H262.254V18.3203H263.566L263.66 20.7578ZM272.473 24.543V24.7891C272.473 25.7344 272.363 26.6016 272.145 27.3906C271.926 28.1797 271.609 28.8633 271.195 29.4414C270.789 30.0117 270.285 30.4531 269.684 30.7656C269.082 31.0781 268.398 31.2344 267.633 31.2344C266.875 31.2344 266.199 31.1172 265.605 30.8828C265.012 30.6484 264.5 30.3164 264.07 29.8867C263.648 29.4492 263.309 28.9414 263.051 28.3633C262.801 27.7773 262.625 27.1367 262.523 26.4414V23.1953C262.641 22.4297 262.832 21.7344 263.098 21.1094C263.363 20.4844 263.703 19.9453 264.117 19.4922C264.539 19.0391 265.039 18.6914 265.617 18.4492C266.195 18.207 266.855 18.0859 267.598 18.0859C268.371 18.0859 269.059 18.2383 269.66 18.543C270.27 18.8398 270.781 19.2734 271.195 19.8438C271.617 20.4062 271.934 21.0859 272.145 21.8828C272.363 22.6719 272.473 23.5586 272.473 24.543ZM271.066 24.7891V24.543C271.066 23.8008 270.988 23.1133 270.832 22.4805C270.684 21.8477 270.453 21.2969 270.141 20.8281C269.836 20.3516 269.445 19.9805 268.969 19.7148C268.5 19.4492 267.941 19.3164 267.293 19.3164C266.621 19.3164 266.047 19.4297 265.57 19.6562C265.102 19.875 264.711 20.168 264.398 20.5352C264.086 20.8945 263.84 21.2891 263.66 21.7188C263.48 22.1484 263.348 22.5703 263.262 22.9844V26.7227C263.41 27.3164 263.648 27.8672 263.977 28.375C264.305 28.875 264.742 29.2773 265.289 29.582C265.844 29.8789 266.52 30.0273 267.316 30.0273C267.957 30.0273 268.512 29.8945 268.98 29.6289C269.449 29.3633 269.836 28.9922 270.141 28.5156C270.453 28.0391 270.684 27.4844 270.832 26.8516C270.988 26.2188 271.066 25.5312 271.066 24.7891ZM283.301 28.7266V22.1875C283.301 21.5859 283.176 21.0664 282.926 20.6289C282.676 20.1914 282.309 19.8555 281.824 19.6211C281.34 19.3867 280.742 19.2695 280.031 19.2695C279.375 19.2695 278.789 19.3867 278.273 19.6211C277.766 19.8477 277.363 20.1562 277.066 20.5469C276.777 20.9297 276.633 21.3555 276.633 21.8242L275.227 21.8125C275.227 21.3359 275.344 20.875 275.578 20.4297C275.812 19.9844 276.145 19.5859 276.574 19.2344C277.004 18.8828 277.516 18.6055 278.109 18.4023C278.711 18.1914 279.371 18.0859 280.09 18.0859C280.996 18.0859 281.793 18.2383 282.48 18.543C283.176 18.8477 283.719 19.3047 284.109 19.9141C284.5 20.5234 284.695 21.2891 284.695 22.2109V28.3398C284.695 28.7773 284.727 29.2305 284.789 29.6992C284.859 30.168 284.957 30.5547 285.082 30.8594V31H283.594C283.5 30.7188 283.426 30.3672 283.371 29.9453C283.324 29.5156 283.301 29.1094 283.301 28.7266ZM283.629 23.6172L283.652 24.6953H280.898C280.18 24.6953 279.535 24.7617 278.965 24.8945C278.402 25.0195 277.926 25.207 277.535 25.457C277.145 25.6992 276.844 25.9922 276.633 26.3359C276.43 26.6797 276.328 27.0703 276.328 27.5078C276.328 27.9609 276.441 28.375 276.668 28.75C276.902 29.125 277.23 29.4258 277.652 29.6523C278.082 29.8711 278.59 29.9805 279.176 29.9805C279.957 29.9805 280.645 29.8359 281.238 29.5469C281.84 29.2578 282.336 28.8789 282.727 28.4102C283.117 27.9414 283.379 27.4297 283.512 26.875L284.121 27.6836C284.02 28.0742 283.832 28.4766 283.559 28.8906C283.293 29.2969 282.945 29.6797 282.516 30.0391C282.086 30.3906 281.578 30.6797 280.992 30.9062C280.414 31.125 279.758 31.2344 279.023 31.2344C278.195 31.2344 277.473 31.0781 276.855 30.7656C276.246 30.4531 275.77 30.0273 275.426 29.4883C275.09 28.9414 274.922 28.3242 274.922 27.6367C274.922 27.0117 275.055 26.4531 275.32 25.9609C275.586 25.4609 275.969 25.0391 276.469 24.6953C276.977 24.3438 277.586 24.0781 278.297 23.8984C279.016 23.7109 279.82 23.6172 280.711 23.6172H283.629ZM289.852 21.0273V31H288.457V18.3203H289.793L289.852 21.0273ZM289.535 23.875L288.914 23.5234C288.961 22.7734 289.113 22.0703 289.371 21.4141C289.629 20.7578 289.977 20.1797 290.414 19.6797C290.859 19.1797 291.379 18.7891 291.973 18.5078C292.574 18.2266 293.238 18.0859 293.965 18.0859C294.598 18.0859 295.164 18.1719 295.664 18.3438C296.164 18.5156 296.59 18.7891 296.941 19.1641C297.293 19.5391 297.559 20.0195 297.738 20.6055C297.926 21.1914 298.02 21.9062 298.02 22.75V31H296.613V22.7383C296.613 21.8633 296.492 21.1797 296.25 20.6875C296.008 20.1875 295.664 19.832 295.219 19.6211C294.773 19.4102 294.246 19.3047 293.637 19.3047C292.965 19.3047 292.375 19.4531 291.867 19.75C291.367 20.0391 290.945 20.418 290.602 20.8867C290.266 21.3477 290.008 21.8438 289.828 22.375C289.648 22.8984 289.551 23.3984 289.535 23.875ZM305.414 29.7344L309.363 18.3203H310.875L305.508 33.0391C305.398 33.3281 305.258 33.6484 305.086 34C304.922 34.3516 304.703 34.6875 304.43 35.0078C304.164 35.3359 303.828 35.6016 303.422 35.8047C303.023 36.0156 302.535 36.1211 301.957 36.1211C301.809 36.1211 301.617 36.1016 301.383 36.0625C301.156 36.0312 300.992 36 300.891 35.9688L300.879 34.7852C300.965 34.8086 301.09 34.8281 301.254 34.8438C301.418 34.8594 301.531 34.8672 301.594 34.8672C302.102 34.8672 302.527 34.7812 302.871 34.6094C303.223 34.4375 303.516 34.1797 303.75 33.8359C303.984 33.5 304.191 33.0781 304.371 32.5703L305.414 29.7344ZM301.723 18.3203L305.766 29.207L306.141 30.6719L305.121 31.2461L300.199 18.3203H301.723Z" fill="#080F14"/>
<path d="M9.34247 41.4852L11.447 40.2588L16.5471 43.166L21.6452 40.2591L23.7479 41.4884L16.5466 45.6717L9.34247 41.4852Z" fill="#FFBE58"/>
<path d="M15.4731 38.6971L16.5424 38.0599L17.6201 38.6971V40.5277L16.5424 41.1561L15.4731 40.5277V38.6971Z" fill="#FFBE58"/>
<path d="M12.4324 31.3122V4.16402L14.5786 2.94714V32.5204L6.33295 37.348L4.12 36.1294L12.4324 31.3122Z" fill="#FFBE58"/>
<path d="M20.7588 31.2943V4.14608L18.6126 2.9292V32.5025L26.8583 37.3301L29.0712 36.1115L20.7588 31.2943Z" fill="#FFBE58"/>
<path d="M9.38934 29.5599V7.91735L11.5098 6.7179V30.7806L3.20971 35.6062L1.87491 34.8905V33.9354L9.38934 29.5599Z" fill="#FFBE58"/>
<path d="M23.7039 29.5599V7.91735L21.5834 6.7179V30.7806L29.8835 35.6062L31.2183 34.8905V33.9354L23.7039 29.5599Z" fill="#FFBE58"/>
<path d="M6.32534 27.8008V13.3084L8.45035 12.0789V28.9899L1.83185 32.9596V30.3062L3.30632 29.4372V18.563L5.45339 17.3082V28.2983L6.32534 27.8008Z" fill="#FFBE58"/>
<path d="M26.7248 27.8008V13.3084L24.5998 12.0789V28.9899L31.2183 32.9596V30.3062L29.7439 29.4372V18.563L27.5968 17.3082V28.2983L26.7248 27.8008Z" fill="#FFBE58"/>
<path d="M15.4731 0.584274L16.5478 0L17.6201 0.584274V33.0985L25.85 37.8411L31.2183 34.8906V18.3228L27.6398 16.2825V13.8586L33.098 16.9982V36.0994L25.85 40.2594L16.5481 34.8906L7.24151 40.2591L0 36.1003V16.9982L5.40427 13.8586V16.2825L1.8749 18.3228V34.8906L7.24434 37.8411L15.4731 33.0985V0.584274Z" fill="#FFBE58"/>
</svg>
