<svg width="320" height="46" viewBox="0 0 320 46" fill="none" xmlns="http://www.w3.org/2000/svg">
<path d="M56.4258 25.7617V13.9375H59.9297V25.7617C59.9297 26.9023 59.6797 27.8828 59.1797 28.7031C58.6797 29.5156 57.9961 30.1406 57.1289 30.5781C56.2695 31.0156 55.3008 31.2344 54.2227 31.2344C53.1055 31.2344 52.1172 31.0469 51.2578 30.6719C50.3984 30.2969 49.7227 29.7227 49.2305 28.9492C48.7383 28.168 48.4922 27.1797 48.4922 25.9844H52.0195C52.0195 26.6094 52.1055 27.1055 52.2773 27.4727C52.457 27.8398 52.7109 28.1016 53.0391 28.2578C53.3672 28.4141 53.7617 28.4922 54.2227 28.4922C54.668 28.4922 55.0547 28.3867 55.3828 28.1758C55.7109 27.9648 55.9648 27.6562 56.1445 27.25C56.332 26.8438 56.4258 26.3477 56.4258 25.7617ZM65.4023 21.8711L68.6836 19.75C69.168 19.4297 69.4922 19.1211 69.6562 18.8242C69.8203 18.5273 69.9023 18.1953 69.9023 17.8281C69.9023 17.4609 69.7656 17.1211 69.4922 16.8086C69.2188 16.4883 68.8359 16.3281 68.3438 16.3281C67.9922 16.3281 67.6953 16.4102 67.4531 16.5742C67.2109 16.7305 67.0273 16.9414 66.9023 17.207C66.7852 17.4727 66.7266 17.7695 66.7266 18.0977C66.7266 18.4492 66.8203 18.8086 67.0078 19.1758C67.1953 19.5352 67.4492 19.918 67.7695 20.3242C68.0898 20.7227 68.4453 21.1562 68.8359 21.625L76.8867 31H73.0547L66.4922 23.4062C65.9375 22.7188 65.4531 22.0898 65.0391 21.5195C64.625 20.9414 64.3008 20.3789 64.0664 19.832C63.832 19.2852 63.7148 18.7227 63.7148 18.1445C63.7148 17.2539 63.9062 16.4766 64.2891 15.8125C64.6719 15.1406 65.2109 14.6211 65.9062 14.2539C66.6016 13.8789 67.418 13.6914 68.3555 13.6914C69.2383 13.6914 70.0039 13.875 70.6523 14.2422C71.3008 14.6016 71.8008 15.0781 72.1523 15.6719C72.5117 16.2656 72.6914 16.918 72.6914 17.6289C72.6914 18.1602 72.5938 18.6523 72.3984 19.1055C72.2031 19.5508 71.9336 19.9648 71.5898 20.3477C71.2461 20.7227 70.8516 21.0703 70.4062 21.3906L66.668 24.0508C66.3789 24.3164 66.1602 24.5781 66.0117 24.8359C65.8633 25.0938 65.7617 25.3398 65.707 25.5742C65.6523 25.8008 65.625 26.0195 65.625 26.2305C65.625 26.6836 65.7227 27.0898 65.918 27.4492C66.1133 27.8086 66.3867 28.0898 66.7383 28.293C67.0898 28.4961 67.5 28.5977 67.9688 28.5977C68.6094 28.5977 69.2305 28.457 69.832 28.1758C70.4336 27.8945 70.9727 27.4922 71.4492 26.9688C71.9258 26.4375 72.3047 25.8086 72.5859 25.082C72.8672 24.3555 73.0078 23.5547 73.0078 22.6797H75.8672C75.8672 23.5547 75.7812 24.3867 75.6094 25.1758C75.4375 25.957 75.1602 26.6836 74.7773 27.3555C74.3945 28.0195 73.8867 28.6094 73.2539 29.125C73.207 29.1641 73.1406 29.2227 73.0547 29.3008C72.9766 29.3711 72.9102 29.4258 72.8555 29.4648C72.1055 30.0664 71.3242 30.5156 70.5117 30.8125C69.6992 31.1016 68.793 31.2461 67.793 31.2461C66.6523 31.2461 65.6641 31.0391 64.8281 30.625C64 30.2109 63.3594 29.6406 62.9062 28.9141C62.4609 28.1875 62.2383 27.3555 62.2383 26.418C62.2383 25.7305 62.3711 25.1328 62.6367 24.625C62.9102 24.1094 63.2852 23.6328 63.7617 23.1953C64.2383 22.7578 64.7852 22.3164 65.4023 21.8711ZM85.6641 16.8555L81.0234 31H77.2852L83.625 13.9375H86.0039L85.6641 16.8555ZM89.5195 31L84.8672 16.8555L84.4922 13.9375H86.8945L93.2695 31H89.5195ZM89.3086 24.6484V27.4023H80.2969V24.6484H89.3086ZM103.793 20.9102V31H100.699V18.3203H103.629L103.793 20.9102ZM107.648 18.2383L107.602 21.1211C107.43 21.0898 107.234 21.0664 107.016 21.0508C106.805 21.0352 106.605 21.0273 106.418 21.0273C105.941 21.0273 105.523 21.0938 105.164 21.2266C104.805 21.3516 104.504 21.5352 104.262 21.7773C104.027 22.0195 103.848 22.3164 103.723 22.668C103.598 23.0117 103.527 23.4023 103.512 23.8398L102.844 23.7578C102.844 22.9531 102.926 22.207 103.09 21.5195C103.254 20.832 103.492 20.2305 103.805 19.7148C104.117 19.1992 104.508 18.8008 104.977 18.5195C105.453 18.2305 106 18.0859 106.617 18.0859C106.789 18.0859 106.973 18.1016 107.168 18.1328C107.371 18.1562 107.531 18.1914 107.648 18.2383ZM114.809 31.2344C113.848 31.2344 112.984 31.0781 112.219 30.7656C111.453 30.4531 110.801 30.0195 110.262 29.4648C109.73 28.9023 109.32 28.25 109.031 27.5078C108.75 26.7578 108.609 25.9531 108.609 25.0938V24.625C108.609 23.6484 108.75 22.7617 109.031 21.9648C109.312 21.1602 109.711 20.4688 110.227 19.8906C110.742 19.3125 111.359 18.8672 112.078 18.5547C112.797 18.2422 113.59 18.0859 114.457 18.0859C115.355 18.0859 116.148 18.2383 116.836 18.543C117.523 18.8398 118.098 19.2617 118.559 19.8086C119.02 20.3555 119.367 21.0117 119.602 21.7773C119.836 22.5352 119.953 23.375 119.953 24.2969V25.5977H110.016V23.4648H116.906V23.2305C116.891 22.7383 116.797 22.2891 116.625 21.8828C116.453 21.4688 116.188 21.1406 115.828 20.8984C115.469 20.6484 115.004 20.5234 114.434 20.5234C113.973 20.5234 113.57 20.625 113.227 20.8281C112.891 21.0234 112.609 21.3047 112.383 21.6719C112.164 22.0312 112 22.4609 111.891 22.9609C111.781 23.4609 111.727 24.0156 111.727 24.625V25.0938C111.727 25.625 111.797 26.1172 111.938 26.5703C112.086 27.0234 112.301 27.418 112.582 27.7539C112.871 28.082 113.215 28.3398 113.613 28.5273C114.02 28.707 114.48 28.7969 114.996 28.7969C115.645 28.7969 116.23 28.6719 116.754 28.4219C117.285 28.1641 117.746 27.7852 118.137 27.2852L119.695 28.9023C119.43 29.293 119.07 29.668 118.617 30.0273C118.172 30.3867 117.633 30.6797 117 30.9062C116.367 31.125 115.637 31.2344 114.809 31.2344ZM129 27.5312C129 27.2656 128.93 27.0273 128.789 26.8164C128.648 26.6055 128.383 26.4141 127.992 26.2422C127.609 26.0625 127.047 25.8945 126.305 25.7383C125.648 25.5977 125.043 25.4219 124.488 25.2109C123.934 25 123.457 24.7461 123.059 24.4492C122.66 24.1445 122.348 23.7891 122.121 23.3828C121.902 22.9688 121.793 22.4922 121.793 21.9531C121.793 21.4297 121.906 20.9375 122.133 20.4766C122.359 20.0078 122.688 19.5977 123.117 19.2461C123.547 18.8867 124.07 18.6055 124.688 18.4023C125.305 18.1914 126 18.0859 126.773 18.0859C127.852 18.0859 128.777 18.2617 129.551 18.6133C130.332 18.9648 130.93 19.4492 131.344 20.0664C131.758 20.6758 131.965 21.3633 131.965 22.1289H128.871C128.871 21.793 128.793 21.4883 128.637 21.2148C128.488 20.9414 128.258 20.7227 127.945 20.5586C127.633 20.3867 127.238 20.3008 126.762 20.3008C126.332 20.3008 125.969 20.3711 125.672 20.5117C125.383 20.6523 125.164 20.8359 125.016 21.0625C124.867 21.2891 124.793 21.5391 124.793 21.8125C124.793 22.0156 124.832 22.1992 124.91 22.3633C124.996 22.5195 125.133 22.6641 125.32 22.7969C125.508 22.9297 125.762 23.0508 126.082 23.1602C126.41 23.2695 126.812 23.375 127.289 23.4766C128.234 23.6641 129.059 23.9141 129.762 24.2266C130.473 24.5312 131.027 24.9375 131.426 25.4453C131.824 25.9531 132.023 26.6016 132.023 27.3906C132.023 27.9531 131.902 28.4688 131.66 28.9375C131.418 29.3984 131.066 29.8008 130.605 30.1445C130.145 30.4883 129.594 30.7578 128.953 30.9531C128.312 31.1406 127.59 31.2344 126.785 31.2344C125.621 31.2344 124.637 31.0273 123.832 30.6133C123.027 30.1914 122.418 29.6602 122.004 29.0195C121.59 28.3711 121.383 27.6992 121.383 27.0039H124.348C124.371 27.4961 124.504 27.8906 124.746 28.1875C124.988 28.4844 125.293 28.6992 125.66 28.832C126.035 28.957 126.43 29.0195 126.844 29.0195C127.312 29.0195 127.707 28.957 128.027 28.832C128.348 28.6992 128.59 28.5234 128.754 28.3047C128.918 28.0781 129 27.8203 129 27.5312ZM137.66 18.3203V31H134.555V18.3203H137.66ZM134.344 15.0039C134.344 14.543 134.5 14.1602 134.812 13.8555C135.133 13.5508 135.562 13.3984 136.102 13.3984C136.641 13.3984 137.066 13.5508 137.379 13.8555C137.699 14.1602 137.859 14.543 137.859 15.0039C137.859 15.457 137.699 15.8359 137.379 16.1406C137.066 16.4453 136.641 16.5977 136.102 16.5977C135.562 16.5977 135.133 16.4453 134.812 16.1406C134.5 15.8359 134.344 15.457 134.344 15.0039ZM148.219 28.3047V13H151.336V31H148.523L148.219 28.3047ZM140.074 24.8125V24.5664C140.074 23.5977 140.184 22.7188 140.402 21.9297C140.629 21.1328 140.957 20.4492 141.387 19.8789C141.816 19.3086 142.336 18.8672 142.945 18.5547C143.562 18.2422 144.262 18.0859 145.043 18.0859C145.801 18.0859 146.461 18.2383 147.023 18.543C147.594 18.8477 148.078 19.2812 148.477 19.8438C148.883 20.4062 149.207 21.0742 149.449 21.8477C149.691 22.6133 149.867 23.457 149.977 24.3789V25.0469C149.867 25.9453 149.691 26.7695 149.449 27.5195C149.207 28.2695 148.883 28.9258 148.477 29.4883C148.078 30.043 147.594 30.4727 147.023 30.7773C146.453 31.082 145.785 31.2344 145.02 31.2344C144.246 31.2344 143.551 31.0742 142.934 30.7539C142.324 30.4336 141.805 29.9844 141.375 29.4062C140.953 28.8281 140.629 28.1484 140.402 27.3672C140.184 26.5859 140.074 25.7344 140.074 24.8125ZM143.18 24.5664V24.8125C143.18 25.3594 143.227 25.8711 143.32 26.3477C143.414 26.8242 143.566 27.2461 143.777 27.6133C143.988 27.9727 144.258 28.2539 144.586 28.457C144.922 28.6602 145.328 28.7617 145.805 28.7617C146.414 28.7617 146.914 28.6289 147.305 28.3633C147.703 28.0898 148.012 27.7188 148.23 27.25C148.449 26.7734 148.59 26.2383 148.652 25.6445V23.8047C148.621 23.3359 148.539 22.9023 148.406 22.5039C148.281 22.1055 148.102 21.7617 147.867 21.4727C147.641 21.1836 147.359 20.957 147.023 20.793C146.688 20.6289 146.289 20.5469 145.828 20.5469C145.352 20.5469 144.945 20.6523 144.609 20.8633C144.273 21.0664 144 21.3516 143.789 21.7188C143.578 22.0859 143.422 22.5117 143.32 22.9961C143.227 23.4805 143.18 24.0039 143.18 24.5664ZM159.832 31.2344C158.871 31.2344 158.008 31.0781 157.242 30.7656C156.477 30.4531 155.824 30.0195 155.285 29.4648C154.754 28.9023 154.344 28.25 154.055 27.5078C153.773 26.7578 153.633 25.9531 153.633 25.0938V24.625C153.633 23.6484 153.773 22.7617 154.055 21.9648C154.336 21.1602 154.734 20.4688 155.25 19.8906C155.766 19.3125 156.383 18.8672 157.102 18.5547C157.82 18.2422 158.613 18.0859 159.48 18.0859C160.379 18.0859 161.172 18.2383 161.859 18.543C162.547 18.8398 163.121 19.2617 163.582 19.8086C164.043 20.3555 164.391 21.0117 164.625 21.7773C164.859 22.5352 164.977 23.375 164.977 24.2969V25.5977H155.039V23.4648H161.93V23.2305C161.914 22.7383 161.82 22.2891 161.648 21.8828C161.477 21.4688 161.211 21.1406 160.852 20.8984C160.492 20.6484 160.027 20.5234 159.457 20.5234C158.996 20.5234 158.594 20.625 158.25 20.8281C157.914 21.0234 157.633 21.3047 157.406 21.6719C157.188 22.0312 157.023 22.4609 156.914 22.9609C156.805 23.4609 156.75 24.0156 156.75 24.625V25.0938C156.75 25.625 156.82 26.1172 156.961 26.5703C157.109 27.0234 157.324 27.418 157.605 27.7539C157.895 28.082 158.238 28.3398 158.637 28.5273C159.043 28.707 159.504 28.7969 160.02 28.7969C160.668 28.7969 161.254 28.6719 161.777 28.4219C162.309 28.1641 162.77 27.7852 163.16 27.2852L164.719 28.9023C164.453 29.293 164.094 29.668 163.641 30.0273C163.195 30.3867 162.656 30.6797 162.023 30.9062C161.391 31.125 160.66 31.2344 159.832 31.2344ZM170.086 21.0273V31H166.992V18.3203H169.898L170.086 21.0273ZM169.594 24.2031H168.68C168.688 23.2812 168.812 22.4453 169.055 21.6953C169.297 20.9453 169.637 20.3008 170.074 19.7617C170.52 19.2227 171.047 18.8086 171.656 18.5195C172.266 18.2305 172.945 18.0859 173.695 18.0859C174.305 18.0859 174.855 18.1719 175.348 18.3438C175.84 18.5156 176.262 18.7891 176.613 19.1641C176.973 19.5391 177.246 20.0312 177.434 20.6406C177.629 21.2422 177.727 21.9844 177.727 22.8672V31H174.609V22.8438C174.609 22.2656 174.523 21.8086 174.352 21.4727C174.188 21.1367 173.945 20.8984 173.625 20.7578C173.312 20.6172 172.926 20.5469 172.465 20.5469C171.988 20.5469 171.57 20.6445 171.211 20.8398C170.859 21.0273 170.562 21.2891 170.32 21.625C170.086 21.9609 169.906 22.3477 169.781 22.7852C169.656 23.2227 169.594 23.6953 169.594 24.2031ZM186.457 18.3203V20.5469H179.191V18.3203H186.457ZM181.137 15.2031H184.242V27.3438C184.242 27.7188 184.293 28.0078 184.395 28.2109C184.496 28.4141 184.648 28.5508 184.852 28.6211C185.055 28.6914 185.297 28.7266 185.578 28.7266C185.781 28.7266 185.969 28.7148 186.141 28.6914C186.312 28.668 186.457 28.6445 186.574 28.6211L186.586 30.9414C186.328 31.0273 186.035 31.0977 185.707 31.1523C185.387 31.207 185.023 31.2344 184.617 31.2344C183.922 31.2344 183.312 31.1172 182.789 30.8828C182.266 30.6406 181.859 30.2539 181.57 29.7227C181.281 29.1836 181.137 28.4727 181.137 27.5898V15.2031ZM191.801 18.3203V31H188.695V18.3203H191.801ZM188.484 15.0039C188.484 14.543 188.641 14.1602 188.953 13.8555C189.273 13.5508 189.703 13.3984 190.242 13.3984C190.781 13.3984 191.207 13.5508 191.52 13.8555C191.84 14.1602 192 14.543 192 15.0039C192 15.457 191.84 15.8359 191.52 16.1406C191.207 16.4453 190.781 16.5977 190.242 16.5977C189.703 16.5977 189.273 16.4453 188.953 16.1406C188.641 15.8359 188.484 15.457 188.484 15.0039ZM201.738 28.3047V22.457C201.738 22.0273 201.664 21.6562 201.516 21.3438C201.367 21.0312 201.141 20.7891 200.836 20.6172C200.531 20.4453 200.145 20.3594 199.676 20.3594C199.262 20.3594 198.898 20.4297 198.586 20.5703C198.281 20.7109 198.047 20.9102 197.883 21.168C197.719 21.418 197.637 21.707 197.637 22.0352H194.531C194.531 21.5117 194.656 21.0156 194.906 20.5469C195.156 20.0703 195.512 19.6484 195.973 19.2812C196.441 18.9062 197 18.6133 197.648 18.4023C198.305 18.1914 199.039 18.0859 199.852 18.0859C200.812 18.0859 201.668 18.25 202.418 18.5781C203.176 18.8984 203.77 19.3828 204.199 20.0312C204.637 20.6797 204.855 21.4961 204.855 22.4805V28.0117C204.855 28.6445 204.895 29.1875 204.973 29.6406C205.059 30.0859 205.184 30.4727 205.348 30.8008V31H202.195C202.047 30.6797 201.934 30.2734 201.855 29.7812C201.777 29.2812 201.738 28.7891 201.738 28.3047ZM202.172 23.2773L202.195 25.1172H200.238C199.754 25.1172 199.328 25.168 198.961 25.2695C198.594 25.3633 198.293 25.5039 198.059 25.6914C197.824 25.8711 197.648 26.0898 197.531 26.3477C197.414 26.5977 197.355 26.8828 197.355 27.2031C197.355 27.5156 197.426 27.7969 197.566 28.0469C197.715 28.2969 197.926 28.4961 198.199 28.6445C198.48 28.7852 198.809 28.8555 199.184 28.8555C199.73 28.8555 200.207 28.7461 200.613 28.5273C201.02 28.3008 201.336 28.0273 201.562 27.707C201.789 27.3867 201.91 27.082 201.926 26.793L202.816 28.1289C202.707 28.4492 202.543 28.7891 202.324 29.1484C202.105 29.5078 201.824 29.8438 201.48 30.1562C201.137 30.4688 200.723 30.7266 200.238 30.9297C199.754 31.1328 199.191 31.2344 198.551 31.2344C197.73 31.2344 196.996 31.0703 196.348 30.7422C195.699 30.4141 195.188 29.9648 194.812 29.3945C194.438 28.8242 194.25 28.1758 194.25 27.4492C194.25 26.7773 194.375 26.1836 194.625 25.668C194.875 25.1523 195.246 24.7188 195.738 24.3672C196.23 24.0078 196.84 23.7383 197.566 23.5586C198.301 23.3711 199.141 23.2773 200.086 23.2773H202.172ZM210.926 13V31H207.82V13H210.926ZM225.059 28.7969C225.496 28.7969 225.887 28.7109 226.23 28.5391C226.574 28.3672 226.848 28.125 227.051 27.8125C227.262 27.5 227.375 27.1367 227.391 26.7227H230.309C230.293 27.582 230.051 28.3516 229.582 29.0312C229.113 29.7109 228.488 30.25 227.707 30.6484C226.934 31.0391 226.066 31.2344 225.105 31.2344C224.129 31.2344 223.277 31.0703 222.551 30.7422C221.824 30.4141 221.219 29.957 220.734 29.3711C220.258 28.7852 219.898 28.1055 219.656 27.332C219.422 26.5586 219.305 25.7305 219.305 24.8477V24.4727C219.305 23.5898 219.422 22.7617 219.656 21.9883C219.898 21.2148 220.258 20.5352 220.734 19.9492C221.219 19.3633 221.824 18.9062 222.551 18.5781C223.277 18.25 224.125 18.0859 225.094 18.0859C226.117 18.0859 227.016 18.2852 227.789 18.6836C228.57 19.082 229.18 19.6445 229.617 20.3711C230.062 21.0977 230.293 21.9531 230.309 22.9375H227.391C227.375 22.4844 227.273 22.0781 227.086 21.7188C226.898 21.3594 226.633 21.0703 226.289 20.8516C225.945 20.6328 225.527 20.5234 225.035 20.5234C224.512 20.5234 224.074 20.6328 223.723 20.8516C223.379 21.0703 223.109 21.3711 222.914 21.7539C222.727 22.1289 222.594 22.5508 222.516 23.0195C222.445 23.4805 222.41 23.9648 222.41 24.4727V24.8477C222.41 25.3633 222.445 25.8555 222.516 26.3242C222.594 26.793 222.727 27.2148 222.914 27.5898C223.109 27.957 223.379 28.25 223.723 28.4688C224.074 28.6875 224.52 28.7969 225.059 28.7969ZM231.82 24.7891V24.543C231.82 23.6133 231.953 22.7578 232.219 21.9766C232.484 21.1875 232.871 20.5039 233.379 19.9258C233.887 19.3477 234.508 18.8984 235.242 18.5781C235.977 18.25 236.812 18.0859 237.75 18.0859C238.703 18.0859 239.547 18.25 240.281 18.5781C241.023 18.8984 241.648 19.3477 242.156 19.9258C242.664 20.5039 243.051 21.1875 243.316 21.9766C243.582 22.7578 243.715 23.6133 243.715 24.543V24.7891C243.715 25.7109 243.582 26.5664 243.316 27.3555C243.051 28.1367 242.664 28.8203 242.156 29.4062C241.648 29.9844 241.027 30.4336 240.293 30.7539C239.559 31.0742 238.719 31.2344 237.773 31.2344C236.836 31.2344 235.996 31.0742 235.254 30.7539C234.512 30.4336 233.887 29.9844 233.379 29.4062C232.871 28.8203 232.484 28.1367 232.219 27.3555C231.953 26.5664 231.82 25.7109 231.82 24.7891ZM234.914 24.543V24.7891C234.914 25.3438 234.969 25.8633 235.078 26.3477C235.188 26.832 235.355 27.2578 235.582 27.625C235.809 27.9922 236.102 28.2812 236.461 28.4922C236.828 28.6953 237.266 28.7969 237.773 28.7969C238.273 28.7969 238.703 28.6953 239.062 28.4922C239.422 28.2812 239.715 27.9922 239.941 27.625C240.176 27.2578 240.348 26.832 240.457 26.3477C240.566 25.8633 240.621 25.3438 240.621 24.7891V24.543C240.621 23.9961 240.566 23.4844 240.457 23.0078C240.348 22.5234 240.176 22.0977 239.941 21.7305C239.715 21.3555 239.418 21.0625 239.051 20.8516C238.691 20.6328 238.258 20.5234 237.75 20.5234C237.25 20.5234 236.82 20.6328 236.461 20.8516C236.102 21.0625 235.809 21.3555 235.582 21.7305C235.355 22.0977 235.188 22.5234 235.078 23.0078C234.969 23.4844 234.914 23.9961 234.914 24.543ZM249.047 20.9219V31H245.953V18.3203H248.871L249.047 20.9219ZM248.59 24.2031H247.641C247.641 23.3203 247.746 22.5078 247.957 21.7656C248.176 21.0234 248.496 20.3789 248.918 19.832C249.34 19.2773 249.859 18.8477 250.477 18.543C251.102 18.2383 251.824 18.0859 252.645 18.0859C253.215 18.0859 253.738 18.1719 254.215 18.3438C254.691 18.5078 255.102 18.7695 255.445 19.1289C255.797 19.4805 256.066 19.9414 256.254 20.5117C256.441 21.0742 256.535 21.75 256.535 22.5391V31H253.441V22.8555C253.441 22.2617 253.355 21.7969 253.184 21.4609C253.02 21.125 252.781 20.8906 252.469 20.7578C252.156 20.6172 251.781 20.5469 251.344 20.5469C250.859 20.5469 250.441 20.6445 250.09 20.8398C249.746 21.0273 249.461 21.2891 249.234 21.625C249.016 21.9609 248.852 22.3477 248.742 22.7852C248.641 23.2227 248.59 23.6953 248.59 24.2031ZM256.301 23.6289L255.023 23.8633C255.031 23.0664 255.141 22.3203 255.352 21.625C255.562 20.9219 255.871 20.3086 256.277 19.7852C256.691 19.2539 257.203 18.8398 257.812 18.543C258.43 18.2383 259.141 18.0859 259.945 18.0859C260.57 18.0859 261.133 18.1758 261.633 18.3555C262.141 18.5273 262.574 18.8047 262.934 19.1875C263.293 19.5625 263.566 20.0508 263.754 20.6523C263.949 21.2539 264.047 21.9883 264.047 22.8555V31H260.93V22.8438C260.93 22.2266 260.844 21.7539 260.672 21.4258C260.508 21.0977 260.27 20.8711 259.957 20.7461C259.645 20.6133 259.277 20.5469 258.855 20.5469C258.426 20.5469 258.051 20.6289 257.73 20.793C257.418 20.9492 257.152 21.168 256.934 21.4492C256.723 21.7305 256.562 22.0586 256.453 22.4336C256.352 22.8008 256.301 23.1992 256.301 23.6289ZM269.918 20.7578V35.875H266.812V18.3203H269.684L269.918 20.7578ZM278.062 24.5312V24.7773C278.062 25.6992 277.953 26.5547 277.734 27.3438C277.523 28.125 277.211 28.8086 276.797 29.3945C276.383 29.9727 275.867 30.4258 275.25 30.7539C274.641 31.0742 273.938 31.2344 273.141 31.2344C272.359 31.2344 271.68 31.0859 271.102 30.7891C270.523 30.4844 270.035 30.0547 269.637 29.5C269.238 28.9453 268.918 28.3008 268.676 27.5664C268.441 26.8242 268.266 26.0156 268.148 25.1406V24.3555C268.266 23.4258 268.441 22.582 268.676 21.8242C268.918 21.0586 269.238 20.3984 269.637 19.8438C270.035 19.2812 270.52 18.8477 271.09 18.543C271.668 18.2383 272.344 18.0859 273.117 18.0859C273.922 18.0859 274.629 18.2383 275.238 18.543C275.855 18.8477 276.375 19.2852 276.797 19.8555C277.219 20.4258 277.535 21.1055 277.746 21.8945C277.957 22.6836 278.062 23.5625 278.062 24.5312ZM274.957 24.7773V24.5312C274.957 23.9688 274.906 23.4492 274.805 22.9727C274.703 22.4883 274.547 22.0664 274.336 21.707C274.125 21.3398 273.852 21.0547 273.516 20.8516C273.18 20.6484 272.773 20.5469 272.297 20.5469C271.82 20.5469 271.41 20.625 271.066 20.7812C270.723 20.9375 270.441 21.1602 270.223 21.4492C270.004 21.7383 269.832 22.082 269.707 22.4805C269.59 22.8711 269.512 23.3047 269.473 23.7812V25.7266C269.543 26.3047 269.68 26.8242 269.883 27.2852C270.086 27.7461 270.383 28.1133 270.773 28.3867C271.172 28.6602 271.688 28.7969 272.32 28.7969C272.797 28.7969 273.203 28.6914 273.539 28.4805C273.875 28.2695 274.148 27.9805 274.359 27.6133C274.57 27.2383 274.723 26.8086 274.816 26.3242C274.91 25.8398 274.957 25.3242 274.957 24.7773ZM287.309 28.3047V22.457C287.309 22.0273 287.234 21.6562 287.086 21.3438C286.938 21.0312 286.711 20.7891 286.406 20.6172C286.102 20.4453 285.715 20.3594 285.246 20.3594C284.832 20.3594 284.469 20.4297 284.156 20.5703C283.852 20.7109 283.617 20.9102 283.453 21.168C283.289 21.418 283.207 21.707 283.207 22.0352H280.102C280.102 21.5117 280.227 21.0156 280.477 20.5469C280.727 20.0703 281.082 19.6484 281.543 19.2812C282.012 18.9062 282.57 18.6133 283.219 18.4023C283.875 18.1914 284.609 18.0859 285.422 18.0859C286.383 18.0859 287.238 18.25 287.988 18.5781C288.746 18.8984 289.34 19.3828 289.77 20.0312C290.207 20.6797 290.426 21.4961 290.426 22.4805V28.0117C290.426 28.6445 290.465 29.1875 290.543 29.6406C290.629 30.0859 290.754 30.4727 290.918 30.8008V31H287.766C287.617 30.6797 287.504 30.2734 287.426 29.7812C287.348 29.2812 287.309 28.7891 287.309 28.3047ZM287.742 23.2773L287.766 25.1172H285.809C285.324 25.1172 284.898 25.168 284.531 25.2695C284.164 25.3633 283.863 25.5039 283.629 25.6914C283.395 25.8711 283.219 26.0898 283.102 26.3477C282.984 26.5977 282.926 26.8828 282.926 27.2031C282.926 27.5156 282.996 27.7969 283.137 28.0469C283.285 28.2969 283.496 28.4961 283.77 28.6445C284.051 28.7852 284.379 28.8555 284.754 28.8555C285.301 28.8555 285.777 28.7461 286.184 28.5273C286.59 28.3008 286.906 28.0273 287.133 27.707C287.359 27.3867 287.48 27.082 287.496 26.793L288.387 28.1289C288.277 28.4492 288.113 28.7891 287.895 29.1484C287.676 29.5078 287.395 29.8438 287.051 30.1562C286.707 30.4688 286.293 30.7266 285.809 30.9297C285.324 31.1328 284.762 31.2344 284.121 31.2344C283.301 31.2344 282.566 31.0703 281.918 30.7422C281.27 30.4141 280.758 29.9648 280.383 29.3945C280.008 28.8242 279.82 28.1758 279.82 27.4492C279.82 26.7773 279.945 26.1836 280.195 25.668C280.445 25.1523 280.816 24.7188 281.309 24.3672C281.801 24.0078 282.41 23.7383 283.137 23.5586C283.871 23.3711 284.711 23.2773 285.656 23.2773H287.742ZM296.25 21.0273V31H293.156V18.3203H296.062L296.25 21.0273ZM295.758 24.2031H294.844C294.852 23.2812 294.977 22.4453 295.219 21.6953C295.461 20.9453 295.801 20.3008 296.238 19.7617C296.684 19.2227 297.211 18.8086 297.82 18.5195C298.43 18.2305 299.109 18.0859 299.859 18.0859C300.469 18.0859 301.02 18.1719 301.512 18.3438C302.004 18.5156 302.426 18.7891 302.777 19.1641C303.137 19.5391 303.41 20.0312 303.598 20.6406C303.793 21.2422 303.891 21.9844 303.891 22.8672V31H300.773V22.8438C300.773 22.2656 300.688 21.8086 300.516 21.4727C300.352 21.1367 300.109 20.8984 299.789 20.7578C299.477 20.6172 299.09 20.5469 298.629 20.5469C298.152 20.5469 297.734 20.6445 297.375 20.8398C297.023 21.0273 296.727 21.2891 296.484 21.625C296.25 21.9609 296.07 22.3477 295.945 22.7852C295.82 23.2227 295.758 23.6953 295.758 24.2031ZM310.336 29.5938L313.734 18.3203H317.051L311.965 32.9219C311.848 33.2344 311.695 33.5742 311.508 33.9414C311.328 34.3086 311.086 34.6562 310.781 34.9844C310.477 35.3203 310.094 35.5938 309.633 35.8047C309.18 36.0156 308.629 36.1211 307.98 36.1211C307.699 36.1211 307.449 36.1016 307.23 36.0625C307.012 36.0234 306.781 35.9727 306.539 35.9102V33.5898C306.617 33.5977 306.707 33.6016 306.809 33.6016C306.918 33.6094 307.012 33.6133 307.09 33.6133C307.543 33.6133 307.918 33.5586 308.215 33.4492C308.512 33.3477 308.75 33.1797 308.93 32.9453C309.117 32.7188 309.273 32.4219 309.398 32.0547L310.336 29.5938ZM308.66 18.3203L311.531 27.6602L312.035 30.9297L309.902 31.3164L305.32 18.3203H308.66Z" fill="#080F14"/>
<path d="M9.34247 41.4852L11.447 40.2588L16.5471 43.166L21.6452 40.2591L23.7479 41.4884L16.5466 45.6717L9.34247 41.4852Z" fill="#FFBE58"/>
<path d="M15.4731 38.6971L16.5424 38.0599L17.6201 38.6971V40.5277L16.5424 41.1561L15.4731 40.5277V38.6971Z" fill="#FFBE58"/>
<path d="M12.4324 31.3122V4.16402L14.5786 2.94714V32.5204L6.33295 37.348L4.12 36.1294L12.4324 31.3122Z" fill="#FFBE58"/>
<path d="M20.7588 31.2943V4.14608L18.6126 2.9292V32.5025L26.8583 37.3301L29.0712 36.1115L20.7588 31.2943Z" fill="#FFBE58"/>
<path d="M9.38934 29.5599V7.91735L11.5098 6.7179V30.7806L3.20971 35.6062L1.87491 34.8905V33.9354L9.38934 29.5599Z" fill="#FFBE58"/>
<path d="M23.7039 29.5599V7.91735L21.5834 6.7179V30.7806L29.8835 35.6062L31.2183 34.8905V33.9354L23.7039 29.5599Z" fill="#FFBE58"/>
<path d="M6.32534 27.8008V13.3084L8.45035 12.0789V28.9899L1.83185 32.9596V30.3062L3.30632 29.4372V18.563L5.45339 17.3082V28.2983L6.32534 27.8008Z" fill="#FFBE58"/>
<path d="M26.7248 27.8008V13.3084L24.5998 12.0789V28.9899L31.2183 32.9596V30.3062L29.7439 29.4372V18.563L27.5968 17.3082V28.2983L26.7248 27.8008Z" fill="#FFBE58"/>
<path d="M15.4731 0.584274L16.5478 0L17.6201 0.584274V33.0985L25.85 37.8411L31.2183 34.8906V18.3228L27.6398 16.2825V13.8586L33.098 16.9982V36.0994L25.85 40.2594L16.5481 34.8906L7.24151 40.2591L0 36.1003V16.9982L5.40427 13.8586V16.2825L1.8749 18.3228V34.8906L7.24434 37.8411L15.4731 33.0985V0.584274Z" fill="#FFBE58"/>
</svg>
