<svg width="144" height="64" viewBox="0 0 144 64" fill="none" xmlns="http://www.w3.org/2000/svg">
<path d="M59.6798 26.0906V19.5232H61.6259V26.0906C61.6259 26.7241 61.4871 27.2687 61.2094 27.7243C60.9317 28.1756 60.552 28.5227 60.0703 28.7657C59.593 29.0087 59.055 29.1302 58.4562 29.1302C57.8357 29.1302 57.2868 29.026 56.8094 28.8178C56.3321 28.6095 55.9568 28.2905 55.6834 27.861C55.4101 27.427 55.2734 26.8781 55.2734 26.2142H57.2325C57.2325 26.5614 57.2802 26.8369 57.3757 27.0409C57.4755 27.2448 57.6165 27.3902 57.7988 27.4769C57.981 27.5637 58.2002 27.6071 58.4562 27.6071C58.7035 27.6071 58.9183 27.5485 59.1005 27.4314C59.2828 27.3142 59.4238 27.1428 59.5236 26.9172C59.6277 26.6915 59.6798 26.416 59.6798 26.0906ZM64.6656 23.9297L66.488 22.7516C66.757 22.5737 66.9371 22.4023 67.0282 22.2374C67.1194 22.0725 67.1649 21.8881 67.1649 21.6841C67.1649 21.4802 67.089 21.2914 66.9371 21.1179C66.7852 20.9399 66.5726 20.851 66.2993 20.851C66.104 20.851 65.9391 20.8966 65.8046 20.9877C65.6701 21.0745 65.5681 21.1916 65.4987 21.3392C65.4336 21.4867 65.401 21.6516 65.401 21.8338C65.401 22.0291 65.4531 22.2287 65.5573 22.4326C65.6614 22.6322 65.8024 22.8449 65.9803 23.0705C66.1582 23.2918 66.3557 23.5326 66.5726 23.793L71.0442 29H68.9158L65.2709 24.7823C64.9628 24.4005 64.6938 24.0512 64.4638 23.7344C64.2338 23.4133 64.0537 23.1009 63.9235 22.7971C63.7934 22.4934 63.7283 22.181 63.7283 21.8599C63.7283 21.3652 63.8346 20.9334 64.0472 20.5646C64.2598 20.1914 64.5592 19.9029 64.9454 19.6989C65.3316 19.4907 65.7851 19.3865 66.3058 19.3865C66.7961 19.3865 67.2213 19.4885 67.5815 19.6924C67.9416 19.892 68.2194 20.1567 68.4146 20.4865C68.6142 20.8163 68.714 21.1786 68.714 21.5735C68.714 21.8685 68.6598 22.1419 68.5513 22.3936C68.4428 22.6409 68.2931 22.8709 68.1022 23.0835C67.9113 23.2918 67.6921 23.4849 67.4448 23.6628L65.3685 25.1403C65.208 25.2878 65.0865 25.4332 65.004 25.5764C64.9216 25.7196 64.8652 25.8563 64.8348 25.9864C64.8044 26.1123 64.7892 26.2338 64.7892 26.3509C64.7892 26.6026 64.8435 26.8282 64.9519 27.0278C65.0604 27.2274 65.2123 27.3837 65.4076 27.4965C65.6028 27.6093 65.8306 27.6657 66.091 27.6657C66.4468 27.6657 66.7918 27.5876 67.1259 27.4314C67.46 27.2752 67.7594 27.0517 68.0241 26.761C68.2888 26.4659 68.4992 26.1166 68.6554 25.7131C68.8117 25.3095 68.8898 24.8647 68.8898 24.3788H70.4779C70.4779 24.8647 70.4302 25.3269 70.3347 25.7651C70.2392 26.1991 70.0852 26.6026 69.8726 26.9758C69.66 27.3446 69.3779 27.6722 69.0264 27.9586C69.0004 27.9803 68.9635 28.0128 68.9158 28.0562C68.8724 28.0953 68.8355 28.1257 68.8051 28.1473C68.3886 28.4815 67.9547 28.731 67.5034 28.8959C67.0521 29.0564 66.5488 29.1367 65.9933 29.1367C65.3598 29.1367 64.8109 29.0217 64.3466 28.7917C63.8867 28.5617 63.5309 28.245 63.2792 27.8414C63.0318 27.4379 62.9082 26.9758 62.9082 26.4551C62.9082 26.0732 62.9819 25.7413 63.1295 25.4592C63.2813 25.1728 63.4896 24.9081 63.7543 24.6651C64.019 24.4222 64.3228 24.177 64.6656 23.9297ZM75.9192 21.1439L73.3418 29H71.2655L74.7867 19.5232H76.108L75.9192 21.1439ZM78.0606 29L75.4767 21.1439L75.2684 19.5232H76.6027L80.1435 29H78.0606ZM77.9435 25.4722V27.0018H72.9382V25.4722H77.9435ZM85.2919 23.1226V29H84.5174V21.9575H85.2724L85.2919 23.1226ZM87.7848 21.9054L87.7652 22.6214C87.6785 22.6084 87.5938 22.5975 87.5114 22.5888C87.429 22.5802 87.34 22.5758 87.2445 22.5758C86.9061 22.5758 86.6088 22.6387 86.3528 22.7646C86.1012 22.8861 85.8885 23.0575 85.715 23.2788C85.5414 23.4957 85.4091 23.7517 85.3179 24.0468C85.2268 24.3375 85.1747 24.65 85.1617 24.9841L84.8753 25.0947C84.8753 24.6348 84.9231 24.2074 85.0185 23.8125C85.114 23.4176 85.2594 23.0727 85.4546 22.7776C85.6542 22.4782 85.9037 22.246 86.2031 22.0812C86.5069 21.9119 86.8627 21.8273 87.2706 21.8273C87.3704 21.8273 87.468 21.836 87.5635 21.8533C87.6633 21.8664 87.737 21.8837 87.7848 21.9054ZM91.5989 29.1302C91.139 29.1302 90.7159 29.0456 90.3297 28.8763C89.9479 28.7071 89.6137 28.4684 89.3274 28.1604C89.0453 27.8523 88.8262 27.4878 88.67 27.0669C88.5181 26.6416 88.4422 26.1774 88.4422 25.674V25.3941C88.4422 24.8517 88.5224 24.3614 88.683 23.9231C88.8435 23.4849 89.0648 23.1095 89.3469 22.7971C89.6289 22.4847 89.95 22.246 90.3102 22.0812C90.6747 21.9119 91.0565 21.8273 91.4557 21.8273C91.9027 21.8273 92.2997 21.9076 92.6468 22.0681C92.994 22.2244 93.2847 22.4478 93.519 22.7385C93.7577 23.0249 93.9377 23.3656 94.0592 23.7604C94.1807 24.151 94.2415 24.5827 94.2415 25.0557V25.5308H88.9108V24.8669H93.4669V24.7758C93.4583 24.3809 93.378 24.0121 93.2261 23.6693C93.0786 23.3222 92.8573 23.0401 92.5622 22.8232C92.2672 22.6062 91.8983 22.4977 91.4557 22.4977C91.1259 22.4977 90.8222 22.5671 90.5445 22.706C90.2711 22.8449 90.0346 23.0445 89.835 23.3048C89.6398 23.5608 89.4879 23.8667 89.3794 24.2225C89.2753 24.574 89.2232 24.9646 89.2232 25.3941V25.674C89.2232 26.0645 89.2796 26.429 89.3924 26.7675C89.5096 27.1016 89.6745 27.3967 89.8871 27.6527C90.1041 27.9087 90.3601 28.1083 90.6551 28.2515C90.9502 28.3947 91.2756 28.4663 91.6315 28.4663C92.048 28.4663 92.4169 28.3903 92.738 28.2385C93.0591 28.0823 93.3476 27.8371 93.6036 27.503L94.0918 27.8805C93.9399 28.1061 93.749 28.3144 93.519 28.5053C93.2934 28.6963 93.0222 28.8481 92.7054 28.9609C92.3887 29.0738 92.0198 29.1302 91.5989 29.1302ZM99.9953 27.2036C99.9953 27.0126 99.9475 26.8239 99.8521 26.6373C99.7566 26.4507 99.5722 26.2793 99.2988 26.1231C99.0298 25.9669 98.6328 25.8346 98.1077 25.7261C97.7172 25.6393 97.3679 25.5417 97.0598 25.4332C96.7561 25.3247 96.5 25.1945 96.2918 25.0427C96.0835 24.8908 95.9251 24.7085 95.8166 24.4959C95.7081 24.2833 95.6539 24.0316 95.6539 23.7409C95.6539 23.4805 95.7103 23.2354 95.8231 23.0054C95.9403 22.7711 96.1052 22.5671 96.3178 22.3936C96.5348 22.2157 96.7951 22.0768 97.0988 21.977C97.4069 21.8772 97.7519 21.8273 98.1337 21.8273C98.6761 21.8273 99.1404 21.9206 99.5266 22.1072C99.9172 22.2894 100.214 22.5389 100.418 22.8557C100.627 23.1725 100.731 23.5304 100.731 23.9297H99.9562C99.9562 23.6867 99.8846 23.4567 99.7414 23.2397C99.6026 23.0228 99.3965 22.8449 99.1231 22.706C98.8541 22.5671 98.5243 22.4977 98.1337 22.4977C97.7302 22.4977 97.4026 22.5585 97.1509 22.68C96.8992 22.8015 96.7148 22.9555 96.5977 23.1421C96.4849 23.3287 96.4284 23.5218 96.4284 23.7214C96.4284 23.8776 96.4523 24.0208 96.5 24.151C96.5521 24.2768 96.6432 24.3939 96.7734 24.5024C96.9079 24.6109 97.0988 24.7129 97.3462 24.8083C97.5935 24.9038 97.9146 24.9971 98.3095 25.0882C98.8779 25.2141 99.3422 25.3681 99.7024 25.5503C100.067 25.7282 100.336 25.9495 100.509 26.2142C100.683 26.4746 100.77 26.7914 100.77 27.1645C100.77 27.4552 100.709 27.7221 100.588 27.9651C100.466 28.2038 100.29 28.4099 100.06 28.5834C99.8347 28.757 99.5613 28.8915 99.2402 28.987C98.9235 29.0824 98.5677 29.1302 98.1728 29.1302C97.5783 29.1302 97.075 29.0325 96.6628 28.8373C96.2549 28.6377 95.9446 28.3773 95.732 28.0562C95.5237 27.7308 95.4196 27.3858 95.4196 27.0213H96.1941C96.2202 27.3858 96.3352 27.6744 96.5391 27.887C96.743 28.0953 96.9925 28.2428 97.2876 28.3296C97.587 28.4164 97.8821 28.4598 98.1728 28.4598C98.572 28.4598 98.9061 28.4012 99.1752 28.284C99.4442 28.1669 99.6481 28.0128 99.787 27.8219C99.9258 27.631 99.9953 27.4249 99.9953 27.2036ZM103.399 21.9575V29H102.625V21.9575H103.399ZM102.488 19.9202C102.488 19.7727 102.534 19.649 102.625 19.5492C102.72 19.4451 102.85 19.393 103.015 19.393C103.18 19.393 103.31 19.4451 103.406 19.5492C103.506 19.649 103.556 19.7727 103.556 19.9202C103.556 20.0634 103.506 20.1871 103.406 20.2912C103.31 20.391 103.18 20.4409 103.015 20.4409C102.85 20.4409 102.72 20.391 102.625 20.2912C102.534 20.1871 102.488 20.0634 102.488 19.9202ZM110.103 27.6332V19.0025H110.884V29H110.155L110.103 27.6332ZM105.215 25.5503V25.4137C105.215 24.8669 105.278 24.3744 105.404 23.9362C105.53 23.4936 105.71 23.1161 105.944 22.8036C106.183 22.4869 106.469 22.246 106.803 22.0812C107.138 21.9119 107.515 21.8273 107.936 21.8273C108.348 21.8273 108.713 21.8946 109.029 22.0291C109.346 22.1636 109.617 22.3567 109.843 22.6084C110.073 22.86 110.257 23.1594 110.396 23.5066C110.539 23.8537 110.644 24.2399 110.709 24.6651V26.403C110.657 26.8022 110.561 27.1689 110.422 27.503C110.283 27.8328 110.099 28.1213 109.869 28.3686C109.639 28.6116 109.361 28.8004 109.036 28.9349C108.715 29.0651 108.344 29.1302 107.923 29.1302C107.506 29.1302 107.131 29.0434 106.797 28.8698C106.463 28.6963 106.179 28.4511 105.944 28.1343C105.71 27.8132 105.53 27.4336 105.404 26.9953C105.278 26.557 105.215 26.0754 105.215 25.5503ZM105.996 25.4137V25.5503C105.996 25.9626 106.038 26.3444 106.12 26.6959C106.202 27.0474 106.328 27.3533 106.498 27.6136C106.667 27.874 106.882 28.0779 107.142 28.2255C107.402 28.373 107.71 28.4468 108.066 28.4468C108.513 28.4468 108.888 28.3621 109.192 28.1929C109.496 28.0193 109.739 27.7915 109.921 27.5095C110.103 27.2231 110.236 26.9107 110.318 26.5722V24.548C110.266 24.318 110.19 24.0837 110.09 23.845C109.991 23.6064 109.854 23.3873 109.68 23.1877C109.511 22.9837 109.294 22.821 109.029 22.6995C108.769 22.5737 108.452 22.5107 108.079 22.5107C107.719 22.5107 107.409 22.5845 107.148 22.732C106.888 22.8796 106.671 23.0857 106.498 23.3504C106.328 23.6107 106.202 23.9166 106.12 24.2681C106.038 24.6196 105.996 25.0014 105.996 25.4137ZM115.655 29.1302C115.195 29.1302 114.772 29.0456 114.386 28.8763C114.004 28.7071 113.67 28.4684 113.384 28.1604C113.102 27.8523 112.883 27.4878 112.726 27.0669C112.575 26.6416 112.499 26.1774 112.499 25.674V25.3941C112.499 24.8517 112.579 24.3614 112.739 23.9231C112.9 23.4849 113.121 23.1095 113.403 22.7971C113.685 22.4847 114.007 22.246 114.367 22.0812C114.731 21.9119 115.113 21.8273 115.512 21.8273C115.959 21.8273 116.356 21.9076 116.703 22.0681C117.05 22.2244 117.341 22.4478 117.575 22.7385C117.814 23.0249 117.994 23.3656 118.116 23.7604C118.237 24.151 118.298 24.5827 118.298 25.0557V25.5308H112.967V24.8669H117.523V24.7758C117.515 24.3809 117.434 24.0121 117.283 23.6693C117.135 23.3222 116.914 23.0401 116.619 22.8232C116.324 22.6062 115.955 22.4977 115.512 22.4977C115.182 22.4977 114.879 22.5671 114.601 22.706C114.328 22.8449 114.091 23.0445 113.892 23.3048C113.696 23.5608 113.544 23.8667 113.436 24.2225C113.332 24.574 113.28 24.9646 113.28 25.3941V25.674C113.28 26.0645 113.336 26.429 113.449 26.7675C113.566 27.1016 113.731 27.3967 113.944 27.6527C114.161 27.9087 114.417 28.1083 114.712 28.2515C115.007 28.3947 115.332 28.4663 115.688 28.4663C116.105 28.4663 116.473 28.3903 116.794 28.2385C117.116 28.0823 117.404 27.8371 117.66 27.503L118.148 27.8805C117.996 28.1061 117.805 28.3144 117.575 28.5053C117.35 28.6963 117.079 28.8481 116.762 28.9609C116.445 29.0738 116.076 29.1302 115.655 29.1302ZM120.609 23.461V29H119.834V21.9575H120.576L120.609 23.461ZM120.433 25.0427L120.088 24.8474C120.114 24.4308 120.199 24.0403 120.342 23.6758C120.485 23.3113 120.678 22.9902 120.921 22.7125C121.168 22.4348 121.457 22.2178 121.787 22.0616C122.121 21.9054 122.49 21.8273 122.893 21.8273C123.245 21.8273 123.559 21.875 123.837 21.9705C124.115 22.066 124.351 22.2178 124.546 22.4261C124.742 22.6344 124.889 22.9013 124.989 23.2267C125.093 23.5521 125.145 23.9492 125.145 24.4178V29H124.364V24.4113C124.364 23.9253 124.297 23.5456 124.162 23.2723C124.028 22.9946 123.837 22.7971 123.59 22.68C123.342 22.5628 123.049 22.5042 122.711 22.5042C122.338 22.5042 122.01 22.5867 121.728 22.7516C121.45 22.9121 121.216 23.1226 121.025 23.3829C120.839 23.6389 120.695 23.9145 120.596 24.2095C120.496 24.5003 120.442 24.778 120.433 25.0427ZM129.825 21.9575V22.5954H126.297V21.9575H129.825ZM127.593 20.148H128.367V27.2882C128.367 27.6136 128.41 27.8588 128.497 28.0237C128.584 28.1886 128.697 28.2992 128.836 28.3556C128.975 28.412 129.124 28.4402 129.285 28.4402C129.402 28.4402 129.515 28.4337 129.623 28.4207C129.732 28.4034 129.829 28.386 129.916 28.3686L129.949 29.026C129.853 29.0564 129.73 29.0803 129.578 29.0976C129.426 29.1193 129.274 29.1302 129.122 29.1302C128.823 29.1302 128.558 29.0759 128.328 28.9675C128.098 28.8546 127.918 28.6637 127.788 28.3947C127.658 28.1213 127.593 27.7503 127.593 27.2817V20.148ZM132.324 21.9575V29H131.55V21.9575H132.324ZM131.413 19.9202C131.413 19.7727 131.459 19.649 131.55 19.5492C131.645 19.4451 131.776 19.393 131.94 19.393C132.105 19.393 132.235 19.4451 132.331 19.5492C132.431 19.649 132.481 19.7727 132.481 19.9202C132.481 20.0634 132.431 20.1871 132.331 20.2912C132.235 20.391 132.105 20.4409 131.94 20.4409C131.776 20.4409 131.645 20.391 131.55 20.2912C131.459 20.1871 131.413 20.0634 131.413 19.9202ZM138.736 27.7373V24.1054C138.736 23.7713 138.666 23.4827 138.527 23.2397C138.388 22.9967 138.184 22.8101 137.915 22.68C137.646 22.5498 137.314 22.4847 136.92 22.4847C136.555 22.4847 136.23 22.5498 135.943 22.68C135.661 22.8058 135.438 22.9772 135.273 23.1942C135.112 23.4068 135.032 23.6433 135.032 23.9036L134.251 23.8971C134.251 23.6324 134.316 23.3764 134.446 23.1291C134.576 22.8817 134.761 22.6604 135 22.4652C135.238 22.2699 135.522 22.1159 135.852 22.0031C136.186 21.8859 136.553 21.8273 136.952 21.8273C137.456 21.8273 137.898 21.9119 138.28 22.0812C138.666 22.2504 138.968 22.5042 139.185 22.8427C139.402 23.1811 139.51 23.6064 139.51 24.1184V27.5225C139.51 27.7655 139.527 28.0172 139.562 28.2775C139.601 28.5379 139.655 28.7527 139.725 28.9219V29H138.898C138.846 28.8438 138.805 28.6485 138.775 28.4142C138.749 28.1756 138.736 27.9499 138.736 27.7373ZM138.918 24.8995L138.931 25.4983H137.401C137.002 25.4983 136.644 25.5352 136.327 25.6089C136.015 25.6783 135.75 25.7825 135.533 25.9213C135.316 26.0559 135.149 26.2186 135.032 26.4095C134.919 26.6004 134.863 26.8174 134.863 27.0604C134.863 27.3121 134.926 27.542 135.052 27.7503C135.182 27.9586 135.364 28.1257 135.598 28.2515C135.837 28.373 136.119 28.4337 136.444 28.4337C136.878 28.4337 137.26 28.3535 137.59 28.1929C137.924 28.0324 138.2 27.8219 138.417 27.5616C138.634 27.3012 138.779 27.017 138.853 26.7089L139.191 27.158C139.135 27.375 139.031 27.5984 138.879 27.8284C138.731 28.0541 138.538 28.2667 138.299 28.4663C138.061 28.6615 137.779 28.8221 137.453 28.9479C137.132 29.0694 136.768 29.1302 136.36 29.1302C135.9 29.1302 135.499 29.0434 135.156 28.8698C134.817 28.6963 134.553 28.4598 134.362 28.1604C134.175 27.8566 134.082 27.5138 134.082 27.132C134.082 26.7848 134.156 26.4746 134.303 26.2012C134.451 25.9235 134.663 25.6892 134.941 25.4983C135.223 25.303 135.561 25.1555 135.956 25.0557C136.356 24.9515 136.802 24.8995 137.297 24.8995H138.918ZM142.465 19.0025V29H141.691V19.0025H142.465ZM58.6189 44.4598C58.9487 44.4598 59.2567 44.399 59.5431 44.2775C59.8339 44.1517 60.0725 43.9673 60.2591 43.7243C60.45 43.4769 60.5585 43.1754 60.5845 42.8196H61.3265C61.3048 43.2665 61.1682 43.6657 60.9165 44.0172C60.6692 44.3643 60.3437 44.6377 59.9402 44.8373C59.541 45.0325 59.1005 45.1302 58.6189 45.1302C58.1286 45.1302 57.6946 45.0412 57.3171 44.8633C56.944 44.6854 56.6315 44.4381 56.3799 44.1213C56.1282 43.8002 55.9373 43.427 55.8071 43.0018C55.6813 42.5722 55.6183 42.1101 55.6183 41.6154V41.3421C55.6183 40.8474 55.6813 40.3874 55.8071 39.9622C55.9373 39.5326 56.1282 39.1594 56.3799 38.8427C56.6315 38.5216 56.944 38.2721 57.3171 38.0942C57.6903 37.9163 58.122 37.8273 58.6124 37.8273C59.1157 37.8273 59.567 37.9293 59.9662 38.1332C60.3698 38.3372 60.6909 38.6257 60.9295 38.9989C61.1725 39.3721 61.3048 39.8147 61.3265 40.3267H60.5845C60.5628 39.9492 60.463 39.6237 60.2851 39.3504C60.1072 39.077 59.8729 38.8666 59.5822 38.719C59.2915 38.5715 58.9682 38.4977 58.6124 38.4977C58.2132 38.4977 57.8725 38.5758 57.5905 38.732C57.3085 38.8839 57.0785 39.0944 56.9006 39.3634C56.727 39.6281 56.599 39.9318 56.5165 40.2746C56.4341 40.6131 56.3929 40.9689 56.3929 41.3421V41.6154C56.3929 41.9929 56.4319 42.3531 56.51 42.6959C56.5925 43.0343 56.7205 43.3359 56.8941 43.6006C57.072 43.8653 57.3019 44.0758 57.584 44.232C57.8704 44.3838 58.2153 44.4598 58.6189 44.4598ZM62.4656 41.5894V41.3746C62.4656 40.8626 62.5393 40.3896 62.6869 39.9557C62.8344 39.5218 63.0449 39.1464 63.3182 38.8297C63.5959 38.5129 63.9279 38.2677 64.3141 38.0942C64.7003 37.9163 65.1298 37.8273 65.6028 37.8273C66.0801 37.8273 66.5119 37.9163 66.8981 38.0942C67.2843 38.2677 67.6162 38.5129 67.8939 38.8297C68.1716 39.1464 68.3842 39.5218 68.5318 39.9557C68.6793 40.3896 68.7531 40.8626 68.7531 41.3746V41.5894C68.7531 42.1014 68.6793 42.5744 68.5318 43.0083C68.3842 43.4379 68.1716 43.8111 67.8939 44.1278C67.6205 44.4446 67.2908 44.6919 66.9046 44.8698C66.5184 45.0434 66.0888 45.1302 65.6158 45.1302C65.1385 45.1302 64.7068 45.0434 64.3206 44.8698C63.9344 44.6919 63.6024 44.4446 63.3247 44.1278C63.047 43.8111 62.8344 43.4379 62.6869 43.0083C62.5393 42.5744 62.4656 42.1014 62.4656 41.5894ZM63.2401 41.3746V41.5894C63.2401 41.9756 63.2922 42.3422 63.3963 42.6894C63.5005 43.0322 63.6524 43.3381 63.852 43.6071C64.0516 43.8718 64.2989 44.0801 64.594 44.232C64.889 44.3838 65.2296 44.4598 65.6158 44.4598C65.9977 44.4598 66.334 44.3838 66.6247 44.232C66.9198 44.0801 67.1671 43.8718 67.3667 43.6071C67.5663 43.3381 67.716 43.0322 67.8158 42.6894C67.9199 42.3422 67.972 41.9756 67.972 41.5894V41.3746C67.972 40.9928 67.9199 40.6304 67.8158 40.2876C67.716 39.9448 67.5641 39.6389 67.3602 39.3699C67.1606 39.1009 66.9133 38.8882 66.6182 38.732C66.3231 38.5758 65.9847 38.4977 65.6028 38.4977C65.221 38.4977 64.8825 38.5758 64.5874 38.732C64.2967 38.8882 64.0494 39.1009 63.8454 39.3699C63.6458 39.6389 63.494 39.9448 63.3898 40.2876C63.29 40.6304 63.2401 40.9928 63.2401 41.3746ZM71.1027 39.4155V45H70.3217V37.9575H71.0702L71.1027 39.4155ZM70.9596 41.0427L70.582 40.8474C70.6081 40.4308 70.6862 40.0403 70.8164 39.6758C70.9509 39.3113 71.1375 38.9902 71.3761 38.7125C71.6148 38.4348 71.9012 38.2178 72.2353 38.0616C72.5694 37.9054 72.9491 37.8273 73.3743 37.8273C73.7171 37.8273 74.0274 37.875 74.3051 37.9705C74.5871 38.0616 74.8258 38.207 75.021 38.4066C75.2206 38.6019 75.3747 38.8579 75.4832 39.1746C75.5916 39.4914 75.6459 39.8711 75.6459 40.3137V45H74.8713V40.3397C74.8713 39.8711 74.7976 39.5044 74.65 39.2397C74.5068 38.975 74.3051 38.7863 74.0447 38.6735C73.7887 38.5606 73.4915 38.5042 73.153 38.5042C72.7538 38.5042 72.4154 38.5867 72.1376 38.7516C71.8643 38.9121 71.6408 39.1226 71.4672 39.3829C71.298 39.6389 71.1722 39.9145 71.0897 40.2095C71.0073 40.5003 70.9639 40.778 70.9596 41.0427ZM75.6394 40.4308L75.1187 40.4438C75.1404 40.1011 75.2185 39.7734 75.353 39.461C75.4918 39.1486 75.6806 38.8709 75.9192 38.6279C76.1579 38.3806 76.4421 38.1853 76.7719 38.0421C77.106 37.8989 77.4814 37.8273 77.8979 37.8273C78.2624 37.8273 78.5879 37.8772 78.8742 37.977C79.1606 38.0725 79.4015 38.2265 79.5967 38.4391C79.7963 38.6474 79.9482 38.9143 80.0523 39.2397C80.1565 39.5652 80.2085 39.9557 80.2085 40.4113V45H79.4275V40.4048C79.4275 39.9058 79.3537 39.5196 79.2062 39.2462C79.063 38.9685 78.8634 38.7754 78.6074 38.6669C78.3514 38.5585 78.052 38.5042 77.7092 38.5042C77.3707 38.5086 77.0735 38.5715 76.8175 38.693C76.5614 38.8101 76.3467 38.9664 76.1731 39.1616C76.0039 39.3525 75.8737 39.5587 75.7826 39.78C75.6958 40.0013 75.648 40.2182 75.6394 40.4308ZM82.9552 39.3113V47.7077H82.1742V37.9575H82.9032L82.9552 39.3113ZM87.8499 41.4137V41.5503C87.8499 42.0754 87.7891 42.557 87.6676 42.9953C87.5461 43.4336 87.3704 43.8132 87.1404 44.1343C86.9148 44.4511 86.6349 44.6963 86.3008 44.8698C85.9666 45.0434 85.587 45.1302 85.1617 45.1302C84.7408 45.1302 84.3655 45.0651 84.0357 44.9349C83.7059 44.8047 83.4217 44.6203 83.1831 44.3817C82.9487 44.1387 82.76 43.8566 82.6168 43.5355C82.4779 43.2101 82.3803 42.8543 82.3239 42.4681V40.6651C82.389 40.2399 82.4953 39.8537 82.6428 39.5066C82.7904 39.1594 82.9791 38.86 83.2091 38.6084C83.4434 38.3567 83.7211 38.1636 84.0422 38.0291C84.3633 37.8946 84.73 37.8273 85.1422 37.8273C85.5718 37.8273 85.9536 37.9119 86.2877 38.0812C86.6262 38.246 86.9104 38.4869 87.1404 38.8036C87.3747 39.1161 87.5505 39.4936 87.6676 39.9362C87.7891 40.3744 87.8499 40.8669 87.8499 41.4137ZM87.0688 41.5503V41.4137C87.0688 41.0014 87.0254 40.6196 86.9386 40.2681C86.8562 39.9166 86.7282 39.6107 86.5546 39.3504C86.3854 39.0857 86.1684 38.8796 85.9037 38.732C85.6434 38.5845 85.3331 38.5107 84.973 38.5107C84.5998 38.5107 84.2809 38.5737 84.0162 38.6995C83.7558 38.821 83.5389 38.9837 83.3653 39.1877C83.1917 39.3873 83.055 39.6064 82.9552 39.845C82.8554 40.0837 82.7817 40.318 82.7339 40.548V42.6243C82.8164 42.9541 82.9487 43.26 83.131 43.542C83.3132 43.8197 83.5562 44.0432 83.86 44.2124C84.1681 44.3773 84.5434 44.4598 84.986 44.4598C85.3418 44.4598 85.6499 44.386 85.9102 44.2385C86.1706 44.0909 86.3854 43.8848 86.5546 43.6201C86.7282 43.3554 86.8562 43.0474 86.9386 42.6959C87.0254 42.3444 87.0688 41.9626 87.0688 41.5503ZM93.864 43.7373V40.1054C93.864 39.7713 93.7946 39.4827 93.6557 39.2397C93.5168 38.9967 93.3129 38.8101 93.0439 38.68C92.7748 38.5498 92.4429 38.4847 92.048 38.4847C91.6835 38.4847 91.3581 38.5498 91.0717 38.68C90.7897 38.8058 90.5662 38.9772 90.4013 39.1942C90.2408 39.4068 90.1605 39.6433 90.1605 39.9036L89.3794 39.8971C89.3794 39.6324 89.4445 39.3764 89.5747 39.1291C89.7049 38.8817 89.8893 38.6604 90.1279 38.4652C90.3666 38.2699 90.6508 38.1159 90.9806 38.0031C91.3147 37.8859 91.6814 37.8273 92.0806 37.8273C92.5839 37.8273 93.0265 37.9119 93.4084 38.0812C93.7946 38.2504 94.0961 38.5042 94.3131 38.8427C94.53 39.1811 94.6385 39.6064 94.6385 40.1184V43.5225C94.6385 43.7655 94.6559 44.0172 94.6906 44.2775C94.7296 44.5379 94.7839 44.7527 94.8533 44.9219V45H94.0267C93.9746 44.8438 93.9334 44.6485 93.903 44.4142C93.877 44.1756 93.864 43.9499 93.864 43.7373ZM94.0462 40.8995L94.0592 41.4983H92.5297C92.1305 41.4983 91.7725 41.5352 91.4557 41.6089C91.1433 41.6783 90.8786 41.7825 90.6617 41.9213C90.4447 42.0559 90.2776 42.2186 90.1605 42.4095C90.0477 42.6004 89.9912 42.8174 89.9912 43.0604C89.9912 43.3121 90.0542 43.542 90.18 43.7503C90.3102 43.9586 90.4924 44.1257 90.7267 44.2515C90.9654 44.373 91.2474 44.4337 91.5729 44.4337C92.0068 44.4337 92.3887 44.3535 92.7184 44.1929C93.0525 44.0324 93.3281 43.8219 93.545 43.5616C93.762 43.3012 93.9074 43.017 93.9811 42.7089L94.3196 43.158C94.2632 43.375 94.159 43.5984 94.0072 43.8284C93.8596 44.0541 93.6665 44.2667 93.4279 44.4663C93.1892 44.6615 92.9072 44.8221 92.5817 44.9479C92.2606 45.0694 91.8962 45.1302 91.4883 45.1302C91.0283 45.1302 90.6269 45.0434 90.2841 44.8698C89.9457 44.6963 89.681 44.4598 89.4901 44.1604C89.3035 43.8566 89.2102 43.5138 89.2102 43.132C89.2102 42.7848 89.284 42.4746 89.4315 42.2012C89.579 41.9235 89.7916 41.6892 90.0694 41.4983C90.3514 41.303 90.6899 41.1555 91.0847 41.0557C91.4839 40.9515 91.9309 40.8995 92.4255 40.8995H94.0462ZM97.5024 39.461V45H96.7278V37.9575H97.4698L97.5024 39.461ZM97.3267 41.0427L96.9817 40.8474C97.0077 40.4308 97.0923 40.0403 97.2355 39.6758C97.3787 39.3113 97.5718 38.9902 97.8148 38.7125C98.0621 38.4348 98.3507 38.2178 98.6805 38.0616C99.0146 37.9054 99.3834 37.8273 99.787 37.8273C100.138 37.8273 100.453 37.875 100.731 37.9705C101.008 38.066 101.245 38.2178 101.44 38.4261C101.635 38.6344 101.783 38.9013 101.883 39.2267C101.987 39.5521 102.039 39.9492 102.039 40.4178V45H101.258V40.4113C101.258 39.9253 101.191 39.5456 101.056 39.2723C100.922 38.9946 100.731 38.7971 100.483 38.68C100.236 38.5628 99.9432 38.5042 99.6047 38.5042C99.2316 38.5042 98.904 38.5867 98.6219 38.7516C98.3442 38.9121 98.1099 39.1226 97.919 39.3829C97.7324 39.6389 97.5892 39.9145 97.4894 40.2095C97.3896 40.5003 97.3353 40.778 97.3267 41.0427ZM106.146 44.2971L108.34 37.9575H109.179L106.198 46.1325C106.137 46.2931 106.059 46.471 105.964 46.6662C105.873 46.8615 105.751 47.0481 105.599 47.226C105.452 47.4083 105.265 47.5558 105.04 47.6686C104.818 47.7858 104.547 47.8443 104.226 47.8443C104.144 47.8443 104.037 47.8335 103.907 47.8118C103.781 47.7944 103.69 47.7771 103.634 47.7597L103.627 47.1023C103.675 47.1154 103.744 47.1262 103.835 47.1349C103.927 47.1436 103.989 47.1479 104.024 47.1479C104.306 47.1479 104.543 47.1002 104.734 47.0047C104.929 46.9092 105.092 46.7661 105.222 46.5751C105.352 46.3885 105.467 46.1542 105.567 45.8722L106.146 44.2971ZM104.096 37.9575L106.341 44.0042L106.55 44.8178L105.983 45.1367L103.25 37.9575H104.096Z" fill="#080F14"/>
<path d="M13.0916 58.1333L16.0406 56.4148L23.1876 60.4887L30.3315 56.4152L33.278 58.1379L23.1868 63.9999L13.0916 58.1333Z" fill="#FFBE58"/>
<path d="M21.6825 54.2266L23.1809 53.3337L24.6912 54.2266V56.7918L23.1809 57.6724L21.6825 56.7918V54.2266Z" fill="#FFBE58"/>
<path d="M17.4216 43.8779V5.83498L20.4291 4.12976V45.5709L8.8744 52.3359L5.77338 50.6283L17.4216 43.8779Z" fill="#FFBE58"/>
<path d="M29.0895 43.853V5.81007L26.082 4.10486V45.546L37.6366 52.311L40.7377 50.6034L29.0895 43.853Z" fill="#FFBE58"/>
<path d="M13.1573 41.4225V11.0947L16.1287 9.41394V43.1332L4.49775 49.8952L2.62729 48.8923V47.5539L13.1573 41.4225Z" fill="#FFBE58"/>
<path d="M33.2164 41.4225V11.0947L30.245 9.41394V43.1332L41.8759 49.8952L43.7464 48.8923V47.5539L33.2164 41.4225Z" fill="#FFBE58"/>
<path d="M8.86371 38.9573V18.6491L11.8415 16.9261V40.6237L2.56696 46.1864V42.4683L4.63314 41.2504V26.0124L7.64185 24.254V39.6546L8.86371 38.9573Z" fill="#FFBE58"/>
<path d="M37.4496 38.9573V18.6491L34.4719 16.9261V40.6237L43.7464 46.1864V42.4683L41.6802 41.2504V26.0124L38.6715 24.254V39.6546L37.4496 38.9573Z" fill="#FFBE58"/>
<path d="M21.6825 0.818747L23.1885 0L24.6912 0.818747V46.3812L36.2237 53.0269L43.7464 48.8923V25.6759L38.7319 22.8168V19.4202L46.3804 23.8197V50.5862L36.2237 56.4157L23.189 48.8923L10.1476 56.4153L0 50.5875V23.8197L7.57304 19.4202V22.8168L2.62731 25.6759V48.8923L10.1515 53.0269L21.6825 46.3812V0.818747Z" fill="#FFBE58"/>
</svg>
