<svg width="140" height="194" viewBox="0 0 140 194" fill="none" xmlns="http://www.w3.org/2000/svg">
<path d="M39.4888 175.35L48.3841 170.167L69.9416 182.455L91.4902 170.168L100.378 175.364L69.9393 193.046L39.4888 175.35Z" fill="#FFBE58"/>
<path d="M65.4017 163.566L69.9215 160.873L74.477 163.566V171.303L69.9215 173.96L65.4017 171.303V163.566Z" fill="#FFBE58"/>
<path d="M52.5494 132.351V17.6001L61.621 12.4565V137.457L26.7682 157.863L17.4144 152.712L52.5494 132.351Z" fill="#FFBE58"/>
<path d="M87.7437 132.275V17.525L78.6721 12.3815V137.382L113.525 157.788L122.879 152.637L87.7437 132.275Z" fill="#FFBE58"/>
<path d="M39.6869 124.944V33.4655L48.6497 28.3956V130.104L13.5668 150.501L7.9248 147.476V143.439L39.6869 124.944Z" fill="#FFBE58"/>
<path d="M100.192 124.944V33.4655L91.2292 28.3956V130.104L126.312 150.501L131.954 147.476V143.439L100.192 124.944Z" fill="#FFBE58"/>
<path d="M26.736 117.509V56.2522L35.718 51.0551V122.535L7.7428 139.314V128.099L13.9751 124.425V78.4622L23.0504 73.1583V119.612L26.736 117.509Z" fill="#FFBE58"/>
<path d="M112.961 117.509V56.2522L103.979 51.0551V122.535L131.954 139.314V128.099L125.722 124.425V78.4622L116.646 73.1583V119.612L112.961 117.509Z" fill="#FFBE58"/>
<path d="M65.4019 2.46962L69.9443 0L74.4771 2.46962V139.901L109.263 159.947L131.954 147.476V77.4473L116.829 68.8233V58.578L139.899 71.8484V152.585L109.263 170.169L69.9459 147.476L30.6085 170.168L0 152.589V71.8484L22.8429 58.578V68.8233L7.92485 77.4473V147.476L30.6205 159.947L65.4019 139.901V2.46962Z" fill="#FFBE58"/>
</svg>
